<svg width="215" height="215" viewBox="0 0 215 215" fill="none" xmlns="http://www.w3.org/2000/svg">
<path d="M107.633 0C166.925 0 215 48.0721 215 107.628C215 166.917 166.925 214.989 107.633 214.989C48.0745 214.989 0 166.917 0 107.628C0 48.0721 48.0745 0 107.633 0Z" fill="#5D71FF"/>
<path d="M132.472 207.244C132.472 207.244 127.665 209.915 123.124 212.051C118.584 214.455 112.708 213.12 112.708 213.12C112.708 213.12 115.913 206.71 117.248 205.375C118.584 204.039 121.255 202.971 121.522 198.965C121.789 194.959 121.255 194.158 123.124 190.953C125.261 187.748 128.733 180.804 128.733 178.134C128.733 175.463 128.733 171.457 124.46 168.786C122.323 167.451 119.919 166.383 117.516 164.78C142.354 157.837 163.988 143.148 179.745 123.385C180.458 124.097 181.615 124.453 183.217 124.453C186.155 124.72 188.826 125.789 189.36 128.459C189.894 131.397 195.236 128.726 196.571 130.062C198.174 131.664 198.975 132.999 200.578 133.534C202.18 134.068 202.18 135.67 200.845 140.744C199.242 146.086 193.366 152.762 191.23 156.768C189.36 160.774 187.491 162.911 186.155 166.116C184.82 169.321 184.019 173.594 178.944 174.662C174.137 175.73 172 179.202 169.863 181.606C167.46 183.742 166.391 186.68 161.05 190.686C155.708 194.959 153.839 198.431 150.901 198.431C147.696 198.431 146.36 197.363 146.36 199.499C146.36 201.636 143.422 202.17 139.683 203.238C135.677 204.039 135.41 206.176 132.472 207.244Z" fill="#DF9D19"/>
<path d="M148.497 16.024C145.292 14.6887 142.888 12.8192 140.218 10.1485C137.814 7.47783 135.143 9.08021 134.342 8.54608C133.273 8.27901 127.398 4.80712 125.795 4.27299C124.46 3.73885 121.522 5.07424 119.919 5.07424C118.317 5.07424 116.18 3.47182 114.845 3.47182C113.242 3.47182 113.51 6.67661 113.51 8.54608C113.51 10.4155 112.174 11.2168 109.236 12.018C106.298 12.8192 105.23 8.01194 104.963 7.21074C104.963 6.40954 99.6213 6.67666 97.2175 6.67666C94.5467 6.67666 92.9443 5.87541 92.4101 4.54007C91.876 3.4718 98.2859 0.801147 98.2859 0.801147C85.466 1.06821 69.9753 6.67666 69.9753 6.67666C57.1554 11.7509 50.2114 17.0923 50.2114 17.0923C50.0333 18.1605 49.6772 19.1398 49.143 20.03C48.6089 20.5641 48.0747 21.3653 47.0064 22.4336C46.4722 22.9677 45.7601 23.6799 44.8698 24.5701C44.5137 24.9262 44.0685 25.2823 43.5344 25.6384C42.4661 26.4396 41.3977 27.2408 40.3294 28.309C38.7269 29.3773 37.3915 30.4456 36.3232 31.7809C35.9671 32.3151 35.7 32.9382 35.522 33.6504C33.6524 37.1222 35.789 38.9917 36.8574 41.6624C37.1244 42.9977 40.5964 44.6002 39.7952 47.5379C39.261 49.1403 43.8014 60.6242 43.8014 60.6242V53.9475C43.8014 53.9475 40.8635 44.6002 42.466 43.5319C44.3356 42.7307 44.3356 44.3331 44.8698 47.5379C45.4039 50.7427 46.7393 61.1583 48.6088 63.5619C48.7869 63.918 48.965 64.3631 49.143 64.8973C50.2113 67.5679 49.9442 69.4374 48.6088 71.3069C48.2527 71.841 48.0748 72.2861 48.0748 72.6422C47.5406 73.9775 48.876 75.3129 52.081 75.5799C55.8201 75.5799 57.4226 77.7165 58.758 79.3189C59.8263 80.9213 66.5033 81.1884 66.5033 81.1884C66.5033 81.1884 66.5924 81.0993 66.7704 80.9213C70.7766 80.9213 70.7765 81.7225 72.6461 84.6602C74.5156 87.3309 81.994 87.3309 85.7331 87.598C89.4722 87.865 88.9381 89.7345 88.9381 93.4735C88.671 97.2124 89.2051 97.4795 93.2113 98.5477C96.9505 99.8831 98.5529 102.02 100.69 104.423C102.826 106.827 103.36 106.293 104.696 104.423C106.031 102.821 106.031 102.287 108.168 101.752C110.305 101.485 110.305 103.889 112.441 104.69C114.578 105.491 114.044 102.02 114.044 102.02C112.708 100.417 110.305 98.2806 108.435 98.2806C106.298 98.2806 104.429 99.0818 100.957 99.0818C97.2176 98.8147 97.7518 95.0758 98.2859 91.3369C98.553 87.5979 99.0872 84.6603 98.8201 81.4555C98.553 77.9836 89.2051 80.6542 85.1989 81.4555C81.1927 82.5237 84.3978 77.1823 85.4661 75.3129C86.8015 73.7105 86.5344 75.3128 87.6027 72.3751C88.671 69.1703 88.938 68.3691 86.0001 68.6362C82.7951 68.6362 80.1244 70.7728 79.8573 72.1081C79.3231 73.4434 78.5219 74.2446 76.9195 75.3129C75.317 76.6482 73.9815 74.5117 71.8449 74.7788C70.7765 75.0458 69.1741 74.5117 67.5716 72.6422C66.5033 71.3069 65.9692 70.2386 65.435 69.4374C65.0789 69.0813 64.8117 68.6362 64.6337 68.1021C63.8324 66.2326 63.8324 64.8973 63.8324 63.829C64.0995 62.2266 64.6338 60.8913 65.435 59.5559C65.6131 59.5559 65.702 59.4669 65.702 59.2888C66.5033 58.4876 67.0375 57.1523 67.5716 55.817C68.3729 54.7487 69.4411 52.6122 70.5095 50.2086C71.2217 49.8525 72.023 49.4074 72.9133 48.8732C75.8511 47.805 82.5282 48.072 84.9319 48.8732C87.6027 49.4074 87.0685 47.8049 87.6027 45.9355C88.1369 44.066 92.143 46.2026 94.5467 47.5379C96.9505 49.1403 96.9505 47.805 98.2859 46.7367C99.6213 45.6685 100.422 49.6744 100.69 51.2768C100.957 52.8792 102.559 59.0218 104.963 58.2206C104.429 53.9475 106.031 52.0781 104.429 46.7367C102.826 41.1283 106.031 40.8612 107.901 40.327C109.77 40.06 114.578 38.1906 116.18 37.1223C117.783 36.054 114.845 34.1846 114.044 30.4456C113.242 26.7067 118.584 27.7749 121.522 27.2408C124.46 26.7066 128.199 22.7007 129.801 21.3653C131.404 20.03 133.808 18.9617 134.075 21.0983C134.342 23.2348 138.882 21.8995 141.82 20.8312C144.758 19.7629 148.497 20.297 151.702 20.297C154.907 20.297 151.702 17.6264 148.497 16.024Z" fill="#8AAF19"/>
<path d="M103.093 65.6986C103.093 65.6986 101.224 65.4315 98.5528 65.6986C95.882 66.2327 96.6833 65.4315 96.9504 64.3632C97.4846 63.295 100.957 62.7609 104.963 64.0962C109.236 65.4316 114.845 67.5681 114.311 69.4376C113.776 71.307 110.571 69.7046 108.702 69.7046C106.832 69.7046 106.565 68.9034 105.764 67.8352C104.963 66.4998 104.162 65.9656 103.093 65.6986Z" fill="#8AAF19"/>
<path d="M127.931 77.7164C127.931 77.7164 129.267 78.5176 130.602 78.5176C132.205 78.2506 132.472 77.4494 134.074 77.4494C135.409 77.7165 137.813 79.0518 138.08 78.2506C138.347 77.4494 137.813 76.114 136.478 75.0457C135.41 73.9774 133.54 72.6422 132.205 73.1763C131.136 73.7104 126.863 76.6481 127.931 77.7164Z" fill="#8AAF19"/>
<path d="M200.845 140.744C201.201 139.498 201.468 138.341 201.646 137.273C201.913 135.67 201.913 134.869 201.646 134.335C200.845 132.999 198.975 132.732 198.441 131.931C197.907 131.13 197.64 130.596 196.838 130.329C196.66 130.329 196.571 130.24 196.571 130.062C196.037 129.528 194.702 129.795 193.633 129.795C191.764 129.795 190.161 129.528 189.36 128.192C189.182 127.658 188.915 127.213 188.559 126.857C188.381 126.501 188.114 126.145 187.758 125.789C186.422 124.987 185.087 124.72 183.217 124.453C182.861 124.453 182.505 124.453 182.149 124.453C180.012 123.919 178.944 122.584 178.677 120.981C178.677 119.913 178.677 118.044 178.677 116.174C178.677 115.818 178.677 115.462 178.677 115.106C178.677 114.038 178.41 113.147 177.876 112.435C177.698 112.079 177.52 111.812 177.341 111.634C176.807 111.1 175.472 110.566 174.136 110.032C172.712 109.676 171.11 109.409 169.329 109.23C163.453 108.162 162.919 105.759 161.317 104.156C160.248 102.554 156.509 101.485 154.907 99.349C154.907 99.1709 154.907 99.0819 154.907 99.0819C154.729 98.7258 154.551 98.4587 154.373 98.2807C153.838 96.6783 153.037 96.1441 151.969 96.4112C151.791 96.4112 151.702 96.4112 151.702 96.4112C151.702 96.4112 151.613 96.4112 151.435 96.4112C150.9 96.5892 150.366 96.7673 149.832 96.9454C149.298 97.1234 148.764 97.3015 148.23 97.4795C147.161 98.0137 145.826 98.2807 144.758 98.5478C143.689 98.5478 142.621 98.3697 141.553 98.0136C139.95 97.4795 138.081 96.4112 136.478 95.3429C135.143 94.2747 134.342 93.4735 133.54 92.6723C133.362 92.6723 133.184 92.5832 133.006 92.4052C132.472 92.1381 131.671 92.4052 130.602 92.4052C127.13 92.9393 121.522 95.0759 120.453 96.6783C120.275 96.8563 120.097 97.1234 119.919 97.4795C118.851 98.8149 117.515 100.15 116.714 101.218C115.646 102.554 115.112 102.287 113.776 101.218C113.598 101.04 113.42 100.951 113.242 100.951C111.907 99.8831 110.304 102.287 112.174 104.423C112.352 104.601 112.441 104.779 112.441 104.957C112.441 105.67 112.53 106.293 112.708 106.827C112.975 108.963 113.776 111.901 114.043 114.038C114.043 115.64 114.043 116.975 114.043 117.51C114.221 117.866 114.221 118.133 114.043 118.311C113.865 118.489 113.687 118.578 113.509 118.578C113.242 118.845 112.441 118.578 111.373 118.578C108.969 118.311 107.633 120.18 106.565 122.851C106.387 123.029 106.298 123.207 106.298 123.385C103.627 128.192 100.689 131.664 104.695 133.534C104.874 133.712 104.963 133.801 104.963 133.801C104.963 133.801 103.093 134.335 100.956 136.204C99.0869 137.807 102.826 140.21 106.298 144.483C109.503 148.756 108.168 151.694 111.373 158.104C114.577 164.513 120.453 166.116 124.46 168.786C128.733 171.457 128.733 175.463 128.733 178.134C128.733 180.804 125.261 187.748 123.124 190.953C121.255 194.158 121.789 194.959 121.522 198.965C121.255 202.971 118.584 204.039 117.248 205.375C115.913 206.71 112.708 213.12 112.708 213.12C112.708 213.12 118.584 214.455 123.124 212.051C126.329 210.449 129.801 208.579 131.404 207.778C131.938 207.778 132.205 207.778 132.205 207.778C132.561 207.422 133.095 207.066 133.807 206.71C134.163 206.354 134.52 206.087 134.876 205.909C136.211 204.84 137.813 203.772 139.416 203.238C139.416 203.238 139.505 203.238 139.683 203.238C140.751 202.882 141.731 202.615 142.621 202.437C145.559 202.17 146.093 201.102 146.36 200.033C146.36 199.855 146.36 199.677 146.36 199.499C146.36 198.431 146.627 198.164 147.428 198.164C148.23 198.164 149.031 198.431 150.366 198.431C150.722 198.431 151.079 198.342 151.435 198.164C154.105 197.897 155.975 194.692 161.05 190.686C162.919 189.351 164.255 188.015 165.323 186.68C166.391 185.79 167.46 184.721 168.528 183.475C169.418 182.229 170.308 181.072 171.199 180.003C173.068 177.867 174.938 175.463 178.944 174.662C179.834 174.484 180.635 174.217 181.348 173.861C183.751 172.792 184.553 170.389 185.621 167.985C185.799 167.273 185.977 166.65 186.155 166.116C187.49 162.911 189.36 160.774 191.23 156.768C192.298 154.899 194.435 151.961 196.304 149.291C196.482 148.934 196.749 148.578 197.106 148.222C198.441 146.353 199.509 144.216 200.311 142.08C200.489 141.724 200.666 141.278 200.845 140.744Z" fill="#8AAF19"/>
<path opacity="0.5" d="M215 106.827C215 106.293 215 105.669 215 104.957C215 104.779 215 104.601 215 104.423C214.733 84.9272 208.857 66.4995 199.242 51.0096C201.557 54.9266 203.604 59.1107 205.385 63.5618C197.372 123.385 146.093 169.32 84.1302 169.32C53.9501 169.32 26.4407 158.371 5.07422 140.21C18.9624 183.742 59.5587 214.989 107.633 214.989C166.925 214.989 215 166.917 215 107.628C215 107.45 215 107.361 215 107.361C215 107.183 215 107.005 215 106.827Z" fill="#094A8B"/>
<path d="M111.106 74.5117C111.106 74.5117 113.776 74.2446 115.379 75.3129C116.714 76.6482 113.509 76.6483 112.708 76.1142C111.907 75.8471 109.77 74.7788 111.106 74.5117Z" fill="#8AAF19"/>
<path d="M142.888 76.9151C142.888 76.9151 139.95 75.5798 139.95 76.9151C139.95 78.2505 141.553 78.5175 143.155 78.2505C145.025 77.9834 144.224 77.1822 142.888 76.9151Z" fill="#8AAF19"/>
<path d="M146.361 79.3188C146.361 79.3188 145.826 80.387 146.895 80.6541C147.429 80.6541 147.162 79.8529 146.895 79.3188C146.895 78.7846 146.628 78.5176 146.361 79.3188Z" fill="#8AAF19"/>
<path d="M148.497 83.0578C148.497 83.0578 147.963 80.9213 147.429 81.9895C146.894 83.0578 148.23 83.0578 148.497 83.0578Z" fill="#8AAF19"/>
<path d="M148.497 84.6603C148.497 84.6603 148.764 85.7286 149.298 85.1945C149.565 84.3933 148.23 82.5238 148.497 84.6603Z" fill="#8AAF19"/>
<path d="M148.764 86.7969C148.764 86.7969 149.565 86.7969 149.565 86.2627C149.565 85.4615 149.031 85.7286 148.764 86.2627C148.497 86.5298 148.497 86.7969 148.764 86.7969Z" fill="#8AAF19"/>
<path d="M83.8632 118.578C83.8632 118.578 84.9316 116.975 84.3974 116.174C83.8633 115.64 83.3291 116.174 83.062 116.441C83.062 116.708 83.062 119.646 83.8632 118.578Z" fill="#8AAF19"/>
<path d="M92.648 110.216H94.504C96.936 110.216 98.8347 109.597 100.2 108.36C101.608 107.08 102.312 105.053 102.312 102.28C102.312 99.848 101.736 98.0347 100.584 96.84C99.4747 95.6027 97.8747 94.984 95.784 94.984C95.6133 94.984 95.4213 94.984 95.208 94.984C94.9947 94.984 94.7813 95.0053 94.568 95.048L93.928 99.208C93.672 100.829 93.096 101.981 92.2 102.664C91.3467 103.304 90.344 103.624 89.192 103.624C87.5707 103.624 86.376 102.941 85.608 101.576C85.736 99.2293 86.376 97.3307 87.528 95.88C88.7227 94.4293 90.2587 93.3627 92.136 92.68C94.056 91.9973 96.104 91.656 98.28 91.656C103.016 91.656 106.536 92.6373 108.84 94.6C111.187 96.5627 112.36 98.9947 112.36 101.896C112.36 103.901 111.656 105.821 110.248 107.656C108.84 109.491 106.515 110.835 103.272 111.688C107.027 112.371 109.672 113.629 111.208 115.464C112.787 117.256 113.576 119.539 113.576 122.312C113.576 124.531 112.936 126.536 111.656 128.328C110.419 130.077 108.605 131.464 106.216 132.488C103.869 133.469 101.011 133.96 97.64 133.96C93.2027 133.96 89.8107 133.043 87.464 131.208C85.1173 129.373 83.8587 126.771 83.688 123.4C84.072 122.376 84.6267 121.651 85.352 121.224C86.12 120.755 86.888 120.52 87.656 120.52C88.9787 120.52 90.024 120.925 90.792 121.736C91.56 122.547 92.0933 124.04 92.392 126.216L92.968 130.504C93.224 130.547 93.4587 130.589 93.672 130.632C93.928 130.632 94.184 130.632 94.44 130.632C100.2 130.632 103.08 127.752 103.08 121.992C103.08 119.347 102.376 117.32 100.968 115.912C99.56 114.504 97.5333 113.8 94.888 113.8H92.648V110.216Z" fill="black"/>
<path d="M107.633 0C166.925 0 215 48.0721 215 107.628C215 166.917 166.925 214.989 107.633 214.989C48.0745 214.989 0 166.917 0 107.628C0 48.0721 48.0745 0 107.633 0Z" fill="black" fill-opacity="0.6"/>
</svg>
