<svg width="144" height="156" viewBox="0 0 144 156" fill="none" xmlns="http://www.w3.org/2000/svg">
<path d="M31.0308 10.5113C-0.186155 29.975 -9.36763 71.1059 10.4643 102.321C30.2963 133.169 71.4292 142.35 102.279 122.519C133.129 103.056 142.31 61.9249 122.845 30.7095C103.013 -0.138612 61.8805 -9.3196 31.0308 10.5113Z" fill="#5D71FF"/>
<path d="M67.0221 100.485C97.8718 80.6542 107.053 39.5234 87.2213 8.67526C85.7523 6.227 84.1609 4.02349 82.447 2.06488C98.6064 6.10452 113.297 16.0201 122.845 30.7096C142.31 61.925 133.129 103.056 102.279 122.52C73.6328 140.882 36.1725 134.271 15.2388 108.932C32.1326 112.971 50.8628 110.401 67.0221 100.485Z" fill="#78BAA8"/>
<path d="M31.0308 10.5115C46.8229 0.22875 65.5531 -2.34199 82.4469 2.06488C84.1608 4.02349 85.7522 6.227 87.2213 8.67526C107.053 39.5234 97.8717 80.6542 67.0221 100.485C50.8627 110.401 32.1326 112.971 15.2387 108.932C13.5248 106.728 11.9333 104.525 10.4643 102.321C-9.36763 71.106 -0.186155 29.9752 31.0308 10.5115Z" fill="#8BCBBC"/>
<path d="M47.5571 63.7611C46.8226 63.7611 46.088 63.3938 45.7208 62.6593C44.9863 61.9249 35.0703 45.7663 36.9066 23.7319C36.9066 22.263 38.0083 21.1613 39.4774 21.5286C40.5791 21.5286 41.6809 22.6302 41.6809 24.0992C40.2119 44.6646 49.7606 59.7215 49.7606 59.7215C50.4951 61.1904 50.1279 62.6594 49.0261 63.3939C48.5364 63.6387 48.0468 63.7611 47.5571 63.7611Z" fill="#78BAA8"/>
<path d="M47.5571 51.6422C46.8226 51.6422 45.7208 51.2749 45.3535 50.1732C45.3535 49.806 38.7429 36.5854 39.4774 17.8562C39.4774 16.7545 40.5792 15.2855 42.0482 15.6527C43.5173 15.6527 44.619 16.7544 44.619 18.2233C43.5173 35.4836 49.7606 47.9698 49.7606 47.9698C50.4951 49.4387 50.1279 50.9077 48.6588 51.2749C48.414 51.5197 48.0468 51.6422 47.5571 51.6422Z" fill="#78BAA8"/>
<path d="M30.2961 63.0265C29.5615 63.761 29.1943 65.2299 29.5616 65.9644C30.2961 67.0661 31.7651 67.4334 32.8669 66.6989C33.6014 65.9644 33.9687 64.8628 33.2341 63.761C32.8669 62.6593 31.3978 62.6593 30.2961 63.0265Z" fill="#78BAA8"/>
<path d="M68.1236 73.6765C67.3891 74.0437 67.0218 75.5127 67.7563 76.6145C68.1236 77.3489 69.5926 77.7161 70.6944 76.9816C71.4289 76.6144 71.7962 75.1454 71.0616 74.0437C70.6944 73.3093 69.2253 72.942 68.1236 73.6765Z" fill="#78BAA8"/>
<path d="M66.2875 17.1216C65.1858 17.8561 64.8185 19.325 65.553 20.0595C66.2876 21.1612 67.3893 21.5285 68.4911 20.794C69.5929 20.0595 69.9601 18.9579 69.2256 17.8561C68.4911 16.7544 67.3893 16.3871 66.2875 17.1216Z" fill="#78BAA8"/>
<path d="M23.6854 27.7716C22.5836 29.2406 22.2163 31.0768 23.3181 31.8113C24.4198 32.913 26.2562 32.5457 27.3579 31.0768C28.827 29.6078 28.8269 27.7717 27.7252 27.0372C26.6234 25.9355 24.7871 26.3027 23.6854 27.7716Z" fill="#78BAA8"/>
<path d="M98.9734 86.1627C97.5044 86.8971 97.1371 88.7334 97.8716 90.2023C98.9734 91.6713 100.81 92.0386 101.911 90.9368C103.38 90.2024 103.748 88.3661 103.013 86.8972C101.911 85.7955 100.442 85.0609 98.9734 86.1627Z" fill="#8BCBBC"/>
<path d="M115.133 58.2525C114.398 61.5577 115.5 64.8628 118.071 65.5973C120.641 66.699 123.947 64.8628 125.049 61.5577C125.783 58.2525 124.681 54.9473 122.11 54.2129C119.172 53.4784 116.234 55.3146 115.133 58.2525Z" fill="#8BCBBC"/>
<path d="M57.8402 121.785C57.5954 121.785 57.2282 121.662 56.7385 121.418C56.004 121.05 35.4375 111.869 26.6233 89.4678C25.8888 87.9989 26.6233 86.5298 27.7251 86.1626C29.1941 85.7954 30.6632 86.1627 31.0304 87.6316C39.1101 108.197 58.5748 117.011 58.942 117.011C60.0438 117.745 60.7783 119.214 60.0438 120.316C59.6766 121.418 58.942 121.785 57.8402 121.785Z" fill="#78BAA8"/>
<path d="M84.6507 60.4559C84.161 60.4559 83.6714 60.2111 83.1817 59.7214C82.4472 58.987 67.3896 43.5628 71.4295 23.7319C71.7967 22.6302 72.8985 21.5285 74.3675 21.8957C75.8365 22.2629 76.571 23.3647 76.2038 24.8337C72.8985 42.0939 86.487 56.049 86.487 56.049C87.5888 57.1508 87.5888 58.6197 86.487 59.7214C85.9973 60.2111 85.3852 60.4559 84.6507 60.4559Z" fill="#78BAA8"/>
<path d="M70.327 112.237C70.0822 112.237 69.7149 112.114 69.2252 111.869C68.858 111.869 60.411 107.463 54.9022 98.6489C54.1676 97.5472 54.5349 96.0781 55.6367 95.3437C56.7384 94.6092 58.2075 94.9765 58.942 96.0782C63.7163 103.423 71.4288 107.463 71.4288 107.463C72.8978 108.197 73.265 109.666 72.5305 110.768C72.1633 111.869 71.4288 112.237 70.327 112.237Z" fill="#78BAA8"/>
<path d="M14.8715 78.8177C13.7697 78.8177 13.0352 78.0833 12.668 77.3488C12.3007 76.9816 8.62809 67.8006 10.0971 59.7213C10.0971 58.6196 11.5662 57.5179 13.0352 57.8851C14.137 58.2524 15.2388 59.3541 14.8715 60.823C13.7697 67.0661 17.0751 75.1453 17.0751 75.1453C17.8096 76.6143 17.0751 78.0833 15.9733 78.4506C15.4836 78.6954 15.1163 78.8177 14.8715 78.8177Z" fill="#78BAA8"/>
<path d="M49.272 41.496L65.208 37.976L66.104 38.616L65.848 47.704V65.688C65.848 67.096 65.848 68.504 65.848 69.912C65.848 71.32 65.8693 72.7493 65.912 74.2L73.336 75.992V79H47.672V75.992L55.48 74.2C55.5227 72.792 55.544 71.384 55.544 69.976C55.544 68.5253 55.544 67.096 55.544 65.688V44.632L49.272 45.208V41.496Z" fill="black"/>
<path d="M31.0308 10.4806C-0.186155 29.9443 -9.36763 71.0751 10.4643 102.29C30.2963 133.139 71.4292 142.32 102.279 122.489C133.129 103.025 142.31 61.8941 122.845 30.6787C103.013 -0.169373 61.8805 -9.35036 31.0308 10.4806Z" fill="black" fill-opacity="0.6"/>
</svg>
