<svg width="192" height="158" viewBox="0 0 192 158" fill="none" xmlns="http://www.w3.org/2000/svg">
<path d="M177.429 107.94C153.422 129.5 113.916 157.5 81.4219 157.5C81.4219 157.5 -21.071 129.5 3.92849 81.3C28.9284 45.0001 46.9289 0 85.2285 0C158.429 14.3 219.922 56.5 177.429 107.94Z" fill="#B9B29D"/>
<path d="M115.328 27.4401C115.328 36.0401 108.428 43.0401 99.8275 43.0401C91.2275 43.0401 84.2275 36.0401 84.2275 27.4401C84.2275 18.8401 91.2275 11.8401 99.8275 11.8401C108.428 11.8401 115.328 18.8401 115.328 27.4401Z" fill="#998E7E"/>
<path d="M99.8275 11.8401C95.2275 11.8401 91.1275 13.8401 88.2275 17.0401C88.8275 16.6401 89.4275 16.3068 90.0275 16.0401C92.2275 14.8401 94.8275 14.1401 97.5275 14.1401C106.128 14.1401 113.128 21.0401 113.128 29.6401C113.128 33.4401 111.828 36.8401 109.628 39.5401C113.128 36.6401 115.328 32.3401 115.328 27.4401C115.328 18.8401 108.428 11.8401 99.8275 11.8401Z" fill="#746859"/>
<path d="M49.8275 62.4401C49.8275 66.7401 46.3275 70.2401 42.0275 70.2401C37.7275 70.2401 34.2275 66.7401 34.2275 62.4401C34.2275 58.1401 37.7275 54.6401 42.0275 54.6401C46.3275 54.6401 49.8275 58.1401 49.8275 62.4401Z" fill="#998E7E"/>
<path d="M42.0275 54.6401C39.7275 54.6401 37.6275 55.6401 36.2275 57.2401C36.4942 57.0401 36.7942 56.8735 37.1275 56.7401C38.2275 56.1401 39.5275 55.7401 40.9275 55.7401C45.2275 55.7401 48.6275 59.2401 48.6275 63.5401C48.6275 65.4401 48.0275 67.1401 46.9275 68.4401C48.6275 67.0401 49.8275 64.8401 49.8275 62.4401C49.8275 58.1401 46.3275 54.6401 42.0275 54.6401Z" fill="#746859"/>
<path d="M114.428 96.6402C114.428 103.64 108.728 109.34 101.828 109.34C94.8275 109.34 89.2275 103.64 89.2275 96.6402C89.2275 89.7402 94.8275 84.0402 101.828 84.0402C108.728 84.0402 114.428 89.7402 114.428 96.6402Z" fill="#998E7E"/>
<path d="M101.828 84.0402C98.1278 84.0402 94.7277 85.6402 92.4277 88.2402C92.8944 87.9068 93.3944 87.6402 93.9277 87.4402C95.7277 86.4402 97.8277 85.8402 100.028 85.8402C106.928 85.8402 112.628 91.5402 112.628 98.4402C112.628 101.54 111.528 104.24 109.828 106.44C112.628 104.14 114.428 100.64 114.428 96.6402C114.428 89.7402 108.728 84.0402 101.828 84.0402Z" fill="#817666"/>
<path d="M89.3228 134.1C89.3228 139.2 85.2228 143.3 80.1228 143.3C75.0228 143.3 70.9229 139.2 70.9229 134.1C70.9229 129.1 75.0228 125 80.1228 125C85.2228 125 89.3228 129.1 89.3228 134.1Z" fill="#998E7E"/>
<path d="M79.7228 125C77.0228 125 74.6229 126.1 72.9229 128C73.2562 127.8 73.5895 127.6 73.9229 127.4C75.3229 126.7 76.8229 126.3 78.4229 126.3C83.5229 126.3 87.6228 130.4 87.6228 135.4C87.6228 137.6 86.8229 139.7 85.5229 141.2C87.6229 139.6 88.9229 137 88.9229 134.1C88.9229 129.1 84.8228 125 79.7228 125Z" fill="#746859"/>
<path d="M154.828 104.44C154.828 109.54 150.728 113.64 145.628 113.64C140.528 113.64 136.428 109.54 136.428 104.44C136.428 99.4401 140.528 95.3401 145.628 95.3401C150.728 95.3401 154.828 99.4401 154.828 104.44Z" fill="#998E7E"/>
<path d="M145.628 95.3401C142.928 95.3401 140.528 96.4401 138.828 98.3401C139.161 98.1401 139.495 97.9401 139.828 97.7401C141.228 97.0401 142.728 96.6401 144.328 96.6401C149.328 96.6401 153.528 100.74 153.528 105.74C153.528 107.94 152.728 110.04 151.428 111.54C153.528 109.94 154.828 107.34 154.828 104.44C154.828 99.4401 150.728 95.3401 145.628 95.3401Z" fill="#746859"/>
<path d="M88.1271 64.3401C88.1271 69.4401 84.0271 73.5401 78.9271 73.5401C73.9271 73.5401 69.8271 69.4401 69.8271 64.3401C69.8271 59.2401 73.9271 55.1401 78.9271 55.1401C84.0271 55.1401 88.1271 59.2401 88.1271 64.3401Z" fill="#998E7E"/>
<path d="M78.9269 55.1401C76.2269 55.1401 73.827 56.3401 72.127 58.1401C72.4603 57.9401 72.827 57.7735 73.227 57.6401C74.527 56.8401 76.027 56.4401 77.627 56.4401C82.727 56.4401 86.827 60.5401 86.827 65.6401C86.827 67.8401 86.027 69.8401 84.727 71.4401C86.827 69.7401 88.127 67.2401 88.127 64.3401C88.127 59.2401 84.0269 55.1401 78.9269 55.1401Z" fill="#746859"/>
<path d="M33.5277 118.34C33.5277 121.64 30.8277 124.34 27.5277 124.34C24.1277 124.34 21.4277 121.64 21.4277 118.34C21.4277 114.94 24.1277 112.24 27.5277 112.24C30.8277 112.24 33.5277 114.94 33.5277 118.34Z" fill="#998E7E"/>
<path d="M27.5273 112.24C25.7273 112.24 24.1273 113.04 23.0273 114.24C23.2273 114.107 23.4607 114.007 23.7274 113.94C24.5274 113.44 25.5273 113.14 26.6273 113.14C29.9274 113.14 32.6273 115.84 32.6273 119.24C32.6273 120.64 32.1274 121.94 31.3274 123.04C32.6274 121.94 33.5273 120.24 33.5273 118.34C33.5273 114.94 30.8273 112.24 27.5273 112.24Z" fill="#746859"/>
<path d="M152.127 54.0401C152.127 57.1401 149.627 59.5401 146.627 59.5401C143.627 59.5401 141.127 57.1401 141.127 54.0401C141.127 51.0401 143.627 48.6401 146.627 48.6401C149.627 48.6401 152.127 51.0401 152.127 54.0401Z" fill="#998E7E"/>
<path d="M146.627 48.6401C145.027 48.6401 143.527 49.3401 142.527 50.4401C142.794 50.3068 143.027 50.1735 143.227 50.0401C144.027 49.6401 144.927 49.4401 145.827 49.4401C148.827 49.4401 151.327 51.8401 151.327 54.8401C151.327 56.1401 150.827 57.3401 150.127 58.3401C151.327 57.3401 152.127 55.7401 152.127 54.0401C152.127 51.0401 149.627 48.6401 146.627 48.6401Z" fill="#746859"/>
<path d="M54.0269 23.2402C54.0269 25.5402 52.127 27.4402 49.827 27.4402C47.527 27.4402 45.627 25.5402 45.627 23.2402C45.627 20.9402 47.527 19.0402 49.827 19.0402C52.127 19.0402 54.0269 20.9402 54.0269 23.2402Z" fill="#998E7E"/>
<path d="M49.8266 19.0402C48.6266 19.0402 47.5266 19.5402 46.7266 20.4402C46.8599 20.3068 47.0266 20.2068 47.2266 20.1402C47.8266 19.8402 48.5266 19.6402 49.2266 19.6402C51.5266 19.6402 53.4265 21.5402 53.4265 23.8402C53.4265 24.8402 53.1266 25.7402 52.5266 26.5402C53.4266 25.7402 54.0266 24.5402 54.0266 23.2402C54.0266 20.9402 52.1266 19.0402 49.8266 19.0402Z" fill="#746859"/>
<path d="M67.1275 104.44C67.1275 106.84 65.2275 108.74 62.9275 108.74C60.6275 108.74 58.7275 106.84 58.7275 104.44C58.7275 102.14 60.6275 100.24 62.9275 100.24C65.2275 100.24 67.1275 102.14 67.1275 104.44Z" fill="#998E7E"/>
<path d="M62.9271 100.24C61.7271 100.24 60.6271 100.74 59.8271 101.64C59.9605 101.507 60.1271 101.407 60.3271 101.34C60.9271 101.04 61.6271 100.84 62.3271 100.84C64.6271 100.84 66.5271 102.74 66.5271 105.04C66.5271 106.04 66.2271 107.04 65.6271 107.74C66.5271 106.94 67.1271 105.74 67.1271 104.44C67.1271 102.14 65.2271 100.24 62.9271 100.24Z" fill="#746859"/>
<path d="M121.827 75.9402C121.827 78.0402 120.127 79.7402 117.927 79.7402C115.827 79.7402 114.027 78.0402 114.027 75.9402C114.027 73.7402 115.827 72.0402 117.927 72.0402C120.127 72.0402 121.827 73.7402 121.827 75.9402Z" fill="#998E7E"/>
<path d="M117.927 72.0402C116.827 72.0402 115.727 72.4402 115.027 73.2402C115.161 73.1735 115.327 73.1068 115.527 73.0402C116.061 72.7068 116.694 72.5402 117.427 72.5402C119.527 72.5402 121.327 74.3402 121.327 76.4402C121.327 77.3402 120.927 78.2402 120.427 78.9402C121.327 78.2402 121.827 77.1402 121.827 75.9402C121.827 73.7402 120.127 72.0402 117.927 72.0402Z" fill="#746859"/>
<path d="M39.7271 81.4402C39.7271 87.4402 34.8271 92.3402 28.7271 92.3402C22.7271 92.3402 17.8271 87.4402 17.8271 81.4402C17.8271 75.4402 22.7271 70.4402 28.7271 70.4402C34.8271 70.4402 39.7271 75.4402 39.7271 81.4402Z" fill="#998E7E"/>
<path d="M28.727 70.4402C25.527 70.4402 22.627 71.8402 20.627 74.0402C21.027 73.8402 21.4603 73.6402 21.9269 73.4402C23.4269 72.5402 25.327 72.0402 27.227 72.0402C33.227 72.0402 38.127 76.9402 38.127 83.0402C38.127 85.6402 37.227 88.0402 35.727 89.9402C38.127 87.9402 39.727 84.8402 39.727 81.4402C39.727 75.4402 34.827 70.4402 28.727 70.4402Z" fill="#746859"/>
<path d="M120.627 133.94C120.627 136.84 118.327 139.14 115.327 139.14C112.427 139.14 110.127 136.84 110.127 133.94C110.127 131.04 112.427 128.64 115.327 128.64C118.327 128.64 120.627 131.04 120.627 133.94Z" fill="#998E7E"/>
<path d="M115.327 128.64C113.827 128.64 112.427 129.34 111.427 130.34C111.627 130.273 111.827 130.173 112.027 130.04C112.827 129.64 113.727 129.44 114.627 129.44C117.527 129.44 119.927 131.74 119.927 134.64C119.927 135.94 119.427 137.14 118.727 138.04C119.927 137.04 120.627 135.54 120.627 133.94C120.627 131.04 118.327 128.64 115.327 128.64Z" fill="#746859"/>
<path d="M101.482 83.32C101.482 85.1333 101.015 86.6667 100.082 87.92C99.1485 89.1467 97.8819 90.0667 96.2819 90.68C94.7085 91.2933 92.9085 91.6 90.8819 91.6C88.3219 91.6 86.3219 91.0133 84.8819 89.84C83.4419 88.64 82.6552 87.0267 82.5219 85C82.7352 84.3867 83.0819 83.9333 83.5619 83.64C84.0419 83.3467 84.5485 83.2 85.0819 83.2C85.9085 83.2 86.5485 83.4533 87.0019 83.96C87.4819 84.4667 87.8019 85.3467 87.9619 86.6L88.2819 89.32C88.5219 89.4 88.7619 89.4533 89.0019 89.48C89.2419 89.5067 89.5085 89.52 89.8019 89.52C91.2685 89.52 92.4552 89.0267 93.3619 88.04C94.2952 87.0533 94.7619 85.7067 94.7619 84C94.7619 82.16 94.3352 80.76 93.4819 79.8C92.6285 78.8133 91.4419 78.32 89.9219 78.32C89.2552 78.32 88.6152 78.36 88.0019 78.44C87.4152 78.52 86.7885 78.6267 86.1219 78.76L85.0019 77.96L85.8419 65.8H100.482V70.72H88.0819L87.7219 75.76C88.9752 75.52 90.2685 75.4 91.6019 75.4C94.6685 75.4 97.0819 76.08 98.8419 77.44C100.602 78.7733 101.482 80.7333 101.482 83.32Z" fill="black"/>
</svg>
