<svg width="192" height="158" viewBox="0 0 192 158" fill="none" xmlns="http://www.w3.org/2000/svg">
<path d="M177.507 107.94C153.5 129.5 113.994 157.5 81.5 157.5C81.5 157.5 -20.9929 129.5 4.00662 81.3C29.0066 45.0001 47.007 0 85.3066 0C158.507 14.3 220 56.5 177.507 107.94Z" fill="#B9B29D"/>
<path d="M115.406 27.4401C115.406 36.0401 108.506 43.0401 99.9057 43.0401C91.3057 43.0401 84.3057 36.0401 84.3057 27.4401C84.3057 18.8401 91.3057 11.8401 99.9057 11.8401C108.506 11.8401 115.406 18.8401 115.406 27.4401Z" fill="#998E7E"/>
<path d="M99.9057 11.8401C95.3057 11.8401 91.2057 13.8401 88.3057 17.0401C88.9057 16.6401 89.5057 16.3068 90.1057 16.0401C92.3057 14.8401 94.9057 14.1401 97.6057 14.1401C106.206 14.1401 113.206 21.0401 113.206 29.6401C113.206 33.4401 111.906 36.8401 109.706 39.5401C113.206 36.6401 115.406 32.3401 115.406 27.4401C115.406 18.8401 108.506 11.8401 99.9057 11.8401Z" fill="#746859"/>
<path d="M49.9057 62.4401C49.9057 66.7401 46.4057 70.2401 42.1057 70.2401C37.8057 70.2401 34.3057 66.7401 34.3057 62.4401C34.3057 58.1401 37.8057 54.6401 42.1057 54.6401C46.4057 54.6401 49.9057 58.1401 49.9057 62.4401Z" fill="#998E7E"/>
<path d="M42.1057 54.6401C39.8057 54.6401 37.7057 55.6401 36.3057 57.2401C36.5723 57.0401 36.8723 56.8735 37.2057 56.7401C38.3057 56.1401 39.6056 55.7401 41.0056 55.7401C45.3056 55.7401 48.7057 59.2401 48.7057 63.5401C48.7057 65.4401 48.1056 67.1401 47.0056 68.4401C48.7056 67.0401 49.9057 64.8401 49.9057 62.4401C49.9057 58.1401 46.4057 54.6401 42.1057 54.6401Z" fill="#746859"/>
<path d="M114.506 96.6402C114.506 103.64 108.806 109.34 101.906 109.34C94.9057 109.34 89.3057 103.64 89.3057 96.6402C89.3057 89.7402 94.9057 84.0402 101.906 84.0402C108.806 84.0402 114.506 89.7402 114.506 96.6402Z" fill="#998E7E"/>
<path d="M101.906 84.0402C98.2059 84.0402 94.8059 85.6402 92.5059 88.2402C92.9725 87.9068 93.4725 87.6402 94.0059 87.4402C95.8059 86.4402 97.9059 85.8402 100.106 85.8402C107.006 85.8402 112.706 91.5402 112.706 98.4402C112.706 101.54 111.606 104.24 109.906 106.44C112.706 104.14 114.506 100.64 114.506 96.6402C114.506 89.7402 108.806 84.0402 101.906 84.0402Z" fill="#817666"/>
<path d="M89.401 134.1C89.401 139.2 85.301 143.3 80.201 143.3C75.101 143.3 71.001 139.2 71.001 134.1C71.001 129.1 75.101 125 80.201 125C85.301 125 89.401 129.1 89.401 134.1Z" fill="#998E7E"/>
<path d="M79.801 125C77.101 125 74.701 126.1 73.001 128C73.3343 127.8 73.6676 127.6 74.001 127.4C75.401 126.7 76.901 126.3 78.501 126.3C83.601 126.3 87.701 130.4 87.701 135.4C87.701 137.6 86.901 139.7 85.601 141.2C87.701 139.6 89.001 137 89.001 134.1C89.001 129.1 84.901 125 79.801 125Z" fill="#746859"/>
<path d="M154.906 104.44C154.906 109.54 150.806 113.64 145.706 113.64C140.606 113.64 136.506 109.54 136.506 104.44C136.506 99.4401 140.606 95.3401 145.706 95.3401C150.806 95.3401 154.906 99.4401 154.906 104.44Z" fill="#998E7E"/>
<path d="M145.706 95.3401C143.006 95.3401 140.606 96.4401 138.906 98.3401C139.24 98.1401 139.573 97.9401 139.906 97.7401C141.306 97.0401 142.806 96.6401 144.406 96.6401C149.406 96.6401 153.606 100.74 153.606 105.74C153.606 107.94 152.806 110.04 151.506 111.54C153.606 109.94 154.906 107.34 154.906 104.44C154.906 99.4401 150.806 95.3401 145.706 95.3401Z" fill="#746859"/>
<path d="M88.2053 64.3401C88.2053 69.4401 84.1052 73.5401 79.0052 73.5401C74.0052 73.5401 69.9053 69.4401 69.9053 64.3401C69.9053 59.2401 74.0052 55.1401 79.0052 55.1401C84.1052 55.1401 88.2053 59.2401 88.2053 64.3401Z" fill="#998E7E"/>
<path d="M79.0051 55.1401C76.3051 55.1401 73.9051 56.3401 72.2051 58.1401C72.5384 57.9401 72.9051 57.7735 73.3051 57.6401C74.6051 56.8401 76.1051 56.4401 77.7051 56.4401C82.8051 56.4401 86.9051 60.5401 86.9051 65.6401C86.9051 67.8401 86.1051 69.8401 84.8051 71.4401C86.9051 69.7401 88.2051 67.2401 88.2051 64.3401C88.2051 59.2401 84.1051 55.1401 79.0051 55.1401Z" fill="#746859"/>
<path d="M33.6059 118.34C33.6059 121.64 30.9059 124.34 27.6059 124.34C24.2059 124.34 21.5059 121.64 21.5059 118.34C21.5059 114.94 24.2059 112.24 27.6059 112.24C30.9059 112.24 33.6059 114.94 33.6059 118.34Z" fill="#998E7E"/>
<path d="M27.6055 112.24C25.8055 112.24 24.2055 113.04 23.1055 114.24C23.3055 114.107 23.5388 114.007 23.8055 113.94C24.6055 113.44 25.6055 113.14 26.7055 113.14C30.0055 113.14 32.7055 115.84 32.7055 119.24C32.7055 120.64 32.2055 121.94 31.4055 123.04C32.7055 121.94 33.6055 120.24 33.6055 118.34C33.6055 114.94 30.9055 112.24 27.6055 112.24Z" fill="#746859"/>
<path d="M152.205 54.0401C152.205 57.1401 149.705 59.5401 146.705 59.5401C143.705 59.5401 141.205 57.1401 141.205 54.0401C141.205 51.0401 143.705 48.6401 146.705 48.6401C149.705 48.6401 152.205 51.0401 152.205 54.0401Z" fill="#998E7E"/>
<path d="M146.705 48.6401C145.105 48.6401 143.605 49.3401 142.605 50.4401C142.872 50.3068 143.105 50.1735 143.305 50.0401C144.105 49.6401 145.005 49.4401 145.905 49.4401C148.905 49.4401 151.405 51.8401 151.405 54.8401C151.405 56.1401 150.905 57.3401 150.205 58.3401C151.405 57.3401 152.205 55.7401 152.205 54.0401C152.205 51.0401 149.705 48.6401 146.705 48.6401Z" fill="#746859"/>
<path d="M54.1051 23.2402C54.1051 25.5402 52.2051 27.4402 49.9051 27.4402C47.6051 27.4402 45.7051 25.5402 45.7051 23.2402C45.7051 20.9402 47.6051 19.0402 49.9051 19.0402C52.2051 19.0402 54.1051 20.9402 54.1051 23.2402Z" fill="#998E7E"/>
<path d="M49.9047 19.0402C48.7047 19.0402 47.6047 19.5402 46.8047 20.4402C46.938 20.3068 47.1047 20.2068 47.3047 20.1402C47.9047 19.8402 48.6047 19.6402 49.3047 19.6402C51.6047 19.6402 53.5047 21.5402 53.5047 23.8402C53.5047 24.8402 53.2047 25.7402 52.6047 26.5402C53.5047 25.7402 54.1047 24.5402 54.1047 23.2402C54.1047 20.9402 52.2047 19.0402 49.9047 19.0402Z" fill="#746859"/>
<path d="M67.2057 104.44C67.2057 106.84 65.3056 108.74 63.0056 108.74C60.7056 108.74 58.8057 106.84 58.8057 104.44C58.8057 102.14 60.7056 100.24 63.0056 100.24C65.3056 100.24 67.2057 102.14 67.2057 104.44Z" fill="#998E7E"/>
<path d="M63.0052 100.24C61.8052 100.24 60.7053 100.74 59.9053 101.64C60.0386 101.507 60.2053 101.407 60.4053 101.34C61.0053 101.04 61.7053 100.84 62.4053 100.84C64.7053 100.84 66.6053 102.74 66.6053 105.04C66.6053 106.04 66.3053 107.04 65.7053 107.74C66.6053 106.94 67.2053 105.74 67.2053 104.44C67.2053 102.14 65.3052 100.24 63.0052 100.24Z" fill="#746859"/>
<path d="M121.905 75.9402C121.905 78.0402 120.205 79.7402 118.005 79.7402C115.905 79.7402 114.105 78.0402 114.105 75.9402C114.105 73.7402 115.905 72.0402 118.005 72.0402C120.205 72.0402 121.905 73.7402 121.905 75.9402Z" fill="#998E7E"/>
<path d="M118.005 72.0402C116.905 72.0402 115.805 72.4402 115.105 73.2402C115.239 73.1735 115.405 73.1068 115.605 73.0402C116.139 72.7068 116.772 72.5402 117.505 72.5402C119.605 72.5402 121.405 74.3402 121.405 76.4402C121.405 77.3402 121.005 78.2402 120.505 78.9402C121.405 78.2402 121.905 77.1402 121.905 75.9402C121.905 73.7402 120.205 72.0402 118.005 72.0402Z" fill="#746859"/>
<path d="M39.8053 81.4402C39.8053 87.4402 34.9053 92.3402 28.8053 92.3402C22.8053 92.3402 17.9053 87.4402 17.9053 81.4402C17.9053 75.4402 22.8053 70.4402 28.8053 70.4402C34.9053 70.4402 39.8053 75.4402 39.8053 81.4402Z" fill="#998E7E"/>
<path d="M28.8051 70.4402C25.6051 70.4402 22.7051 71.8402 20.7051 74.0402C21.1051 73.8402 21.5384 73.6402 22.0051 73.4402C23.5051 72.5402 25.4051 72.0402 27.3051 72.0402C33.3051 72.0402 38.2051 76.9402 38.2051 83.0402C38.2051 85.6402 37.3051 88.0402 35.8051 89.9402C38.2051 87.9402 39.8051 84.8402 39.8051 81.4402C39.8051 75.4402 34.9051 70.4402 28.8051 70.4402Z" fill="#746859"/>
<path d="M120.705 133.94C120.705 136.84 118.405 139.14 115.405 139.14C112.505 139.14 110.205 136.84 110.205 133.94C110.205 131.04 112.505 128.64 115.405 128.64C118.405 128.64 120.705 131.04 120.705 133.94Z" fill="#998E7E"/>
<path d="M115.405 128.64C113.905 128.64 112.505 129.34 111.505 130.34C111.705 130.273 111.905 130.173 112.105 130.04C112.905 129.64 113.805 129.44 114.705 129.44C117.605 129.44 120.005 131.74 120.005 134.64C120.005 135.94 119.505 137.14 118.805 138.04C120.005 137.04 120.705 135.54 120.705 133.94C120.705 131.04 118.405 128.64 115.405 128.64Z" fill="#746859"/>
<path d="M84.92 67.56L94.88 65.36L95.44 65.76L95.28 71.44V82.68C95.28 83.56 95.28 84.44 95.28 85.32C95.28 86.2 95.2933 87.0933 95.32 88L99.96 89.12V91H83.92V89.12L88.8 88C88.8267 87.12 88.84 86.24 88.84 85.36C88.84 84.4533 88.84 83.56 88.84 82.68V69.52L84.92 69.88V67.56Z" fill="black"/>
</svg>
