<svg width="205" height="205" viewBox="0 0 205 205" fill="none" xmlns="http://www.w3.org/2000/svg">
<path d="M47.3255 17.0471C-0.324504 47.1577 -14.2224 110.026 15.8897 157.674C46.3327 205.321 109.204 219.218 156.854 189.108C204.173 158.666 218.402 95.7979 187.959 48.1503C157.847 0.833676 94.9754 -13.3944 47.3255 17.0471Z" fill="#5D71FF"/>
<path d="M102.587 154.696C150.236 124.585 164.134 61.7167 134.022 14.0691C131.596 10.5397 129.169 7.23084 126.742 4.14258C151.229 10.0985 173.399 25.3193 187.959 48.1504C218.402 95.7979 204.173 158.666 156.854 189.108C112.844 216.902 55.5984 206.976 23.1699 167.6C49.3112 174.218 78.0997 170.247 102.587 154.696Z" fill="#30BDC4"/>
<path d="M47.3255 17.0468C71.8122 1.49515 100.601 -2.47548 126.742 4.14223C129.169 7.2305 131.596 10.5394 134.022 14.0688C164.134 61.7163 150.236 124.585 102.586 154.695C78.0996 170.247 49.3111 174.218 23.1698 167.6C20.7432 164.512 18.3163 161.203 15.8897 157.673C-14.2224 110.026 -0.324504 47.1574 47.3255 17.0468Z" fill="#3AC3DA"/>
<path d="M73.1364 98.4449C71.8128 98.4449 70.4892 98.114 69.8274 96.7905C69.1656 95.7978 53.6133 71.3123 56.2605 37.231C56.5914 35.2457 58.2458 33.5913 60.2312 33.5913C62.2166 33.9222 63.871 35.5766 63.871 37.8928C61.5547 69.327 76.1146 92.489 76.1146 92.8199C77.4383 94.4743 76.7763 96.7905 75.1218 98.114C74.46 98.3346 73.7983 98.4449 73.1364 98.4449Z" fill="#30BDC4"/>
<path d="M73.1358 80.2461C71.4813 80.2461 70.1578 79.2534 69.496 77.9299C69.1651 77.2681 59.2378 57.0841 60.5614 28.297C60.8923 26.3117 62.547 24.6573 64.5324 24.9882C66.5178 24.9882 68.1723 26.6426 68.1723 28.9588C66.8487 55.4296 76.1139 74.621 76.4448 74.621C77.4375 76.6063 76.4448 78.5917 74.7903 79.5843C74.1285 80.0255 73.577 80.2461 73.1358 80.2461Z" fill="#30BDC4"/>
<path d="M46.6635 97.783C45.009 98.7756 44.6779 100.761 45.6707 102.415C46.6634 103.739 48.6489 104.401 49.9725 103.408C51.6271 102.415 51.9577 100.099 50.965 98.7756C49.9723 97.1212 47.9871 96.7903 46.6635 97.783Z" fill="#30BDC4"/>
<path d="M104.572 113.666C102.918 114.658 102.587 116.644 103.579 118.298C104.572 119.622 106.558 120.283 108.212 119.291C109.536 118.298 110.198 116.313 109.205 114.658C108.212 113.004 106.227 112.673 104.572 113.666Z" fill="#30BDC4"/>
<path d="M101.593 27.3045C99.9387 28.2971 99.6076 30.2824 100.6 31.9369C101.593 33.2604 103.579 33.9222 104.902 32.9295C106.557 31.9369 106.888 29.9516 105.895 28.2971C105.233 26.6427 102.917 26.3118 101.593 27.3045Z" fill="#30BDC4"/>
<path d="M36.0749 43.518C34.4204 45.5033 34.4204 48.4813 36.0749 49.8048C37.7294 51.1284 40.3768 50.4666 42.0313 48.4813C44.0167 46.496 44.0166 43.518 42.3621 42.1944C40.7076 40.8709 38.0603 41.5327 36.0749 43.518Z" fill="#30BDC4"/>
<path d="M151.56 132.857C149.243 134.181 148.912 137.159 150.236 139.144C151.56 141.129 154.207 141.791 156.523 140.467C158.509 139.144 159.171 136.497 157.847 134.181C156.523 132.195 153.545 131.534 151.56 132.857Z" fill="#30BDC4"/>
<path d="M176.708 90.5039C175.053 95.4672 177.039 100.43 181.01 101.754C184.98 103.078 189.613 100.1 191.267 95.1363C192.922 90.5039 190.937 85.5406 186.966 83.8862C182.995 82.5627 178.362 85.5406 176.708 90.5039Z" fill="#30BDC4"/>
<path d="M88.6882 187.453C88.247 187.453 87.6955 187.343 87.0337 187.122C85.7101 186.791 54.2745 172.232 40.3766 137.82C39.7148 135.835 40.7073 133.85 42.6927 132.857C44.6781 132.195 46.6635 133.188 47.6563 135.173C60.2306 166.607 90.0119 180.174 90.3428 180.505C92.3282 181.166 92.9899 183.482 92.3281 185.468C91.6663 186.791 90.0119 187.453 88.6882 187.453Z" fill="#30BDC4"/>
<path d="M130.051 93.4815C129.059 93.4815 128.066 93.1507 127.404 92.158C126.412 91.1653 103.579 67.6725 109.536 37.5619C109.867 35.5765 111.852 34.253 113.837 34.5839C115.823 34.9148 117.146 36.9001 116.815 38.8854C111.521 65.3562 132.368 86.8638 132.699 86.8638C134.022 88.5182 134.022 90.8345 132.699 92.158C131.706 93.1507 130.713 93.4815 130.051 93.4815Z" fill="#30BDC4"/>
<path d="M107.88 172.894C107.439 172.894 106.888 172.784 106.226 172.564C105.895 172.233 92.3277 165.615 84.0551 152.049C82.7315 150.394 83.3935 148.078 85.048 146.754C86.7025 145.762 89.0188 146.424 90.3424 148.078C97.6222 159.659 109.535 165.615 109.535 165.946C111.52 166.608 112.182 168.924 111.189 170.909C110.528 172.233 109.204 172.894 107.88 172.894Z" fill="#30BDC4"/>
<path d="M22.8385 121.607C21.184 121.607 19.8604 120.615 19.1986 119.291C19.1986 118.629 13.2425 105.063 15.2279 92.8201C15.5589 90.5039 17.5443 89.1804 19.8607 89.5113C21.8461 89.8421 23.1694 91.8274 22.8385 94.1436C20.8531 104.07 26.1475 115.982 26.1475 116.313C27.1402 118.298 26.1476 120.284 24.1622 121.276C23.721 121.497 23.2797 121.607 22.8385 121.607Z" fill="#30BDC4"/>
<path d="M88.096 99.1646C88.096 100.061 88.288 100.957 88.672 101.853C89.056 102.749 89.7813 103.666 90.848 104.605C91.9573 105.501 93.536 106.461 95.584 107.485C96.7787 106.034 97.5893 104.733 98.016 103.581C98.4427 102.386 98.656 101.106 98.656 99.7406C98.656 98.1192 98.1867 96.7752 97.248 95.7086C96.352 94.5992 95.0933 94.0446 93.472 94.0446C92.064 94.0446 90.8053 94.5139 89.696 95.4526C88.6293 96.3486 88.096 97.5859 88.096 99.1646ZM78.816 123.293C78.816 121.159 79.52 119.282 80.928 117.661C82.3787 115.997 84.4693 114.589 87.2 113.437C82.1227 110.621 79.584 106.887 79.584 102.237C79.584 99.8472 80.2027 97.7992 81.44 96.0926C82.6773 94.3432 84.3627 92.9992 86.496 92.0606C88.6293 91.1219 91.04 90.6526 93.728 90.6526C96.7147 90.6526 99.1467 91.0792 101.024 91.9326C102.901 92.7859 104.288 93.9166 105.184 95.3246C106.123 96.7326 106.592 98.2686 106.592 99.9326C106.592 101.554 106.016 103.133 104.864 104.669C103.755 106.205 101.749 107.655 98.848 109.021C101.877 110.557 104.16 112.327 105.696 114.333C107.232 116.338 108 118.685 108 121.373C108 124.871 106.635 127.687 103.904 129.821C101.173 131.911 97.376 132.957 92.512 132.957C87.9467 132.957 84.512 132.082 82.208 130.333C79.9467 128.583 78.816 126.237 78.816 123.293ZM87.2 122.781C87.2 124.743 87.776 126.386 88.928 127.709C90.08 128.989 91.5307 129.629 93.28 129.629C95.1573 129.629 96.544 129.053 97.44 127.901C98.3787 126.706 98.848 125.362 98.848 123.869C98.848 122.162 98.2507 120.626 97.056 119.261C95.904 117.895 93.728 116.487 90.528 115.037C89.3333 116.274 88.48 117.49 87.968 118.685C87.456 119.879 87.2 121.245 87.2 122.781Z" fill="black"/>
<ellipse cx="102" cy="102.415" rx="102" ry="102.415" fill="black" fill-opacity="0.6"/>
</svg>
