<svg width="205" height="204" viewBox="0 0 205 204" fill="none" xmlns="http://www.w3.org/2000/svg">
<path d="M47.3255 16.0471C-0.324504 46.1577 -14.2224 109.026 15.8897 156.674C46.3327 204.321 109.204 218.218 156.854 188.108C204.173 157.666 218.402 94.7979 187.959 47.1503C157.847 -0.166324 94.9754 -14.3944 47.3255 16.0471Z" fill="#5D71FF"/>
<path d="M102.587 153.696C150.236 123.585 164.134 60.7167 134.022 13.0691C131.596 9.5397 129.169 6.23084 126.742 3.14258C151.229 9.09852 173.399 24.3193 187.959 47.1504C218.402 94.7979 204.173 157.666 156.854 188.108C112.844 215.902 55.5984 205.976 23.1699 166.6C49.3112 173.218 78.0997 169.247 102.587 153.696Z" fill="#30BDC4"/>
<path d="M47.3255 16.0468C71.8122 0.49515 100.601 -3.47548 126.742 3.14223C129.169 6.2305 131.596 9.53935 134.022 13.0688C164.134 60.7163 150.236 123.585 102.586 153.695C78.0996 169.247 49.3111 173.218 23.1698 166.6C20.7432 163.512 18.3163 160.203 15.8897 156.673C-14.2224 109.026 -0.324504 46.1574 47.3255 16.0468Z" fill="#3AC3DA"/>
<path d="M73.1364 97.4449C71.8128 97.4449 70.4892 97.114 69.8274 95.7905C69.1656 94.7978 53.6133 70.3123 56.2605 36.231C56.5914 34.2457 58.2458 32.5913 60.2312 32.5913C62.2166 32.9222 63.871 34.5766 63.871 36.8928C61.5547 68.327 76.1146 91.489 76.1146 91.8199C77.4383 93.4743 76.7763 95.7905 75.1218 97.114C74.46 97.3346 73.7983 97.4449 73.1364 97.4449Z" fill="#30BDC4"/>
<path d="M73.1358 79.2461C71.4813 79.2461 70.1578 78.2534 69.496 76.9299C69.1651 76.2681 59.2378 56.0841 60.5614 27.297C60.8923 25.3117 62.547 23.6573 64.5324 23.9882C66.5178 23.9882 68.1723 25.6426 68.1723 27.9588C66.8487 54.4296 76.1139 73.621 76.4448 73.621C77.4375 75.6063 76.4448 77.5917 74.7903 78.5843C74.1285 79.0255 73.577 79.2461 73.1358 79.2461Z" fill="#30BDC4"/>
<path d="M46.6635 96.783C45.009 97.7756 44.6779 99.7609 45.6707 101.415C46.6634 102.739 48.6489 103.401 49.9725 102.408C51.6271 101.415 51.9577 99.0992 50.965 97.7756C49.9723 96.1212 47.9871 95.7903 46.6635 96.783Z" fill="#30BDC4"/>
<path d="M104.572 112.666C102.918 113.658 102.587 115.644 103.579 117.298C104.572 118.622 106.558 119.283 108.212 118.291C109.536 117.298 110.198 115.313 109.205 113.658C108.212 112.004 106.227 111.673 104.572 112.666Z" fill="#30BDC4"/>
<path d="M101.593 26.3045C99.9387 27.2971 99.6076 29.2824 100.6 30.9369C101.593 32.2604 103.579 32.9222 104.902 31.9295C106.557 30.9369 106.888 28.9516 105.895 27.2971C105.233 25.6427 102.917 25.3118 101.593 26.3045Z" fill="#30BDC4"/>
<path d="M36.0749 42.518C34.4204 44.5033 34.4204 47.4813 36.0749 48.8048C37.7294 50.1284 40.3768 49.4666 42.0313 47.4813C44.0167 45.496 44.0166 42.518 42.3621 41.1944C40.7076 39.8709 38.0603 40.5327 36.0749 42.518Z" fill="#30BDC4"/>
<path d="M151.56 131.857C149.243 133.181 148.912 136.159 150.236 138.144C151.56 140.129 154.207 140.791 156.523 139.467C158.509 138.144 159.171 135.497 157.847 133.181C156.523 131.195 153.545 130.534 151.56 131.857Z" fill="#30BDC4"/>
<path d="M176.708 89.5039C175.053 94.4672 177.039 99.4305 181.01 100.754C184.98 102.078 189.613 99.0996 191.267 94.1363C192.922 89.5039 190.937 84.5406 186.966 82.8862C182.995 81.5627 178.362 84.5406 176.708 89.5039Z" fill="#30BDC4"/>
<path d="M88.6882 186.453C88.247 186.453 87.6955 186.343 87.0337 186.122C85.7101 185.791 54.2745 171.232 40.3766 136.82C39.7148 134.835 40.7073 132.85 42.6927 131.857C44.6781 131.195 46.6635 132.188 47.6563 134.173C60.2306 165.607 90.0119 179.174 90.3428 179.505C92.3282 180.166 92.9899 182.482 92.3281 184.468C91.6663 185.791 90.0119 186.453 88.6882 186.453Z" fill="#30BDC4"/>
<path d="M130.051 92.4815C129.059 92.4815 128.066 92.1507 127.404 91.158C126.412 90.1653 103.579 66.6725 109.536 36.5619C109.867 34.5765 111.852 33.253 113.837 33.5839C115.823 33.9148 117.146 35.9001 116.815 37.8854C111.521 64.3562 132.368 85.8638 132.699 85.8638C134.022 87.5182 134.022 89.8345 132.699 91.158C131.706 92.1507 130.713 92.4815 130.051 92.4815Z" fill="#30BDC4"/>
<path d="M107.88 171.894C107.439 171.894 106.888 171.784 106.226 171.564C105.895 171.233 92.3277 164.615 84.0551 151.049C82.7315 149.394 83.3935 147.078 85.048 145.754C86.7025 144.762 89.0188 145.424 90.3424 147.078C97.6222 158.659 109.535 164.615 109.535 164.946C111.52 165.608 112.182 167.924 111.189 169.909C110.528 171.233 109.204 171.894 107.88 171.894Z" fill="#30BDC4"/>
<path d="M22.8385 120.607C21.184 120.607 19.8604 119.615 19.1986 118.291C19.1986 117.629 13.2425 104.063 15.2279 91.8201C15.5589 89.5039 17.5443 88.1804 19.8607 88.5113C21.8461 88.8421 23.1694 90.8274 22.8385 93.1436C20.8531 103.07 26.1475 114.982 26.1475 115.313C27.1402 117.298 26.1476 119.284 24.1622 120.276C23.721 120.497 23.2797 120.607 22.8385 120.607Z" fill="#30BDC4"/>
<path d="M88.096 98.1646C88.096 99.0606 88.288 99.9566 88.672 100.853C89.056 101.749 89.7813 102.666 90.848 103.605C91.9573 104.501 93.536 105.461 95.584 106.485C96.7787 105.034 97.5893 103.733 98.016 102.581C98.4427 101.386 98.656 100.106 98.656 98.7406C98.656 97.1192 98.1867 95.7752 97.248 94.7086C96.352 93.5992 95.0933 93.0446 93.472 93.0446C92.064 93.0446 90.8053 93.5139 89.696 94.4526C88.6293 95.3486 88.096 96.5859 88.096 98.1646ZM78.816 122.293C78.816 120.159 79.52 118.282 80.928 116.661C82.3787 114.997 84.4693 113.589 87.2 112.437C82.1227 109.621 79.584 105.887 79.584 101.237C79.584 98.8472 80.2027 96.7992 81.44 95.0926C82.6773 93.3432 84.3627 91.9992 86.496 91.0606C88.6293 90.1219 91.04 89.6526 93.728 89.6526C96.7147 89.6526 99.1467 90.0792 101.024 90.9326C102.901 91.7859 104.288 92.9166 105.184 94.3246C106.123 95.7326 106.592 97.2686 106.592 98.9326C106.592 100.554 106.016 102.133 104.864 103.669C103.755 105.205 101.749 106.655 98.848 108.021C101.877 109.557 104.16 111.327 105.696 113.333C107.232 115.338 108 117.685 108 120.373C108 123.871 106.635 126.687 103.904 128.821C101.173 130.911 97.376 131.957 92.512 131.957C87.9467 131.957 84.512 131.082 82.208 129.333C79.9467 127.583 78.816 125.237 78.816 122.293ZM87.2 121.781C87.2 123.743 87.776 125.386 88.928 126.709C90.08 127.989 91.5307 128.629 93.28 128.629C95.1573 128.629 96.544 128.053 97.44 126.901C98.3787 125.706 98.848 124.362 98.848 122.869C98.848 121.162 98.2507 119.626 97.056 118.261C95.904 116.895 93.728 115.487 90.528 114.037C89.3333 115.274 88.48 116.49 87.968 117.685C87.456 118.879 87.2 120.245 87.2 121.781Z" fill="black"/>
<path d="M47.3255 16.0505C-0.324504 46.1611 -14.2224 109.029 15.8897 156.677C46.3327 204.324 109.204 218.222 156.854 188.111C204.173 157.67 218.402 94.8013 187.959 47.1538C157.847 -0.162906 94.9754 -14.391 47.3255 16.0505Z" fill="black" fill-opacity="0.6"/>
<path d="M102.587 153.699C150.236 123.588 164.134 60.7201 134.022 13.0726C131.596 9.54312 129.169 6.23426 126.742 3.146C151.229 9.10194 173.399 24.3227 187.959 47.1538C218.402 94.8013 204.173 157.67 156.854 188.111C112.844 215.906 55.5984 205.979 23.1699 166.604C49.3112 173.221 78.0997 169.251 102.587 153.699Z" fill="black" fill-opacity="0.6"/>
<path d="M47.3255 16.0502C71.8122 0.498568 100.601 -3.47207 126.742 3.14565C129.169 6.23391 131.596 9.54277 134.022 13.0722C164.134 60.7198 150.236 123.588 102.586 153.699C78.0996 169.25 49.3111 173.221 23.1698 166.603C20.7432 163.515 18.3163 160.206 15.8897 156.677C-14.2224 109.029 -0.324504 46.1608 47.3255 16.0502Z" fill="black" fill-opacity="0.6"/>
</svg>
