<svg width="561" height="332" viewBox="0 0 561 332" fill="none" xmlns="http://www.w3.org/2000/svg">
<path d="M227.869 9.98371C141.589 39.5637 95.7376 133.48 125.319 219.755C154.901 306.03 248.822 351.879 335.101 322.299C421.381 292.719 467.232 198.803 437.651 112.528C407.823 26.2527 313.901 -19.5963 227.869 9.98371Z" fill="#5D71FF"/>
<path d="M262.627 247.856C348.906 218.276 394.758 124.36 365.176 38.0847C362.875 31.6757 360.328 25.5132 357.534 19.5972C393.772 38.5777 423.107 70.8692 437.651 112.528C467.232 198.803 421.381 292.719 335.102 322.299C255.232 349.661 168.952 312.439 132.961 238.243C171.664 258.456 218.255 263.139 262.627 247.856Z" fill="#A17896"/>
<path d="M227.869 9.98369C272.241 -5.29931 318.832 -0.369293 357.534 19.5972C360.328 25.5132 362.875 31.6757 365.176 38.0847C394.757 124.36 348.906 218.276 262.627 247.856C218.255 263.139 171.664 258.456 132.961 238.243C130.003 232.327 127.456 226.164 125.319 219.755C95.7376 133.48 141.589 39.5637 227.869 9.98369Z" fill="#B38BA7"/>
<path d="M77.4961 66.9254C78.4822 64.9534 84.645 61.9954 100.915 63.2279C111.022 63.7209 125.073 65.9394 144.054 70.8694C187.441 81.7154 242.166 102.914 297.878 130.276C353.836 157.637 403.879 187.957 439.13 215.318C479.804 246.87 484.488 262.646 483.009 265.604C480.791 270.288 460.33 273.246 414.232 261.167C415.711 259.031 417.108 256.895 418.423 254.758C418.587 254.594 418.669 254.512 418.669 254.512C419.327 253.526 419.902 252.622 420.395 251.8C420.559 251.636 420.641 251.472 420.641 251.307C421.134 250.321 421.709 249.418 422.367 248.596C422.367 248.432 422.449 248.185 422.614 247.856C423.107 247.035 423.6 246.213 424.093 245.391C424.257 245.227 424.421 244.981 424.585 244.652C424.914 243.83 425.325 243.009 425.818 242.187C425.982 241.858 426.147 241.53 426.311 241.201C426.804 240.379 427.215 239.558 427.544 238.736C422.121 226.657 391.06 203.733 346.934 178.343C329.432 168.483 309.957 158.13 289.25 148.024C215.789 112.035 150.957 90.0964 132.961 94.2869C129.017 102.011 125.812 110.145 123.347 118.69C85.631 89.3569 75.2775 71.6089 77.4961 66.9254Z" fill="#CC4A38"/>
<path d="M4.52834 30.9363C16.854 6.0398 56.5427 -1.35517 119.65 9.73733C142.082 13.6813 166.487 19.8438 192.125 27.9783C233.292 40.7963 277.911 58.7908 322.283 80.4828C365.176 101.435 407.083 126.085 443.814 151.475C521.712 205.458 574.712 263.632 556.223 301.347C546.363 321.067 518.507 329.694 476.6 327.229C447.018 325.257 410.535 317.616 368.627 304.551C368.627 304.551 368.545 304.551 368.381 304.551C376.434 299.293 383.993 293.459 391.06 287.05C421.381 295.924 448.497 301.1 470.19 302.579C498.786 304.305 518.26 299.375 524.177 287.05C541.433 251.8 445.786 169.962 310.697 103.9C223.678 61.2558 141.343 35.8663 89.3287 32.4153C60.7332 30.6898 41.2588 35.6198 35.096 47.9448C24.4959 69.8833 57.5285 110.063 116.692 153.2C116.692 154.022 116.692 154.926 116.692 155.912C116.527 157.062 116.445 158.13 116.445 159.116C116.199 166.758 116.445 173.906 117.185 181.301C117.02 181.301 116.938 181.219 116.938 181.055C30.1659 120.909 -11.988 64.7068 4.52834 30.9363Z" fill="#F16048"/>
<path d="M398.209 279.901C398.209 279.901 398.291 279.901 398.455 279.901C425.818 287.543 450.223 292.226 470.684 293.459C495.581 294.938 512.098 291.24 516.042 283.106C527.381 259.935 453.181 183.52 306.753 112.035C223.432 71.3623 141.836 44.9868 88.5894 41.5358L89.3287 32.4153C141.343 35.8663 223.678 61.2558 310.697 103.9C445.786 169.962 541.433 251.8 524.177 287.05C518.26 299.375 498.786 304.305 470.19 302.579C448.497 301.1 421.381 295.924 391.06 287.05C390.896 287.05 390.814 287.05 390.814 287.05C393.443 284.749 395.908 282.366 398.209 279.901Z" fill="#CC4A38"/>
<path d="M43.2308 52.1352C36.3285 66.4322 62.2121 101.189 117.924 142.847C117.431 146.298 117.102 149.749 116.938 153.2C116.938 153.2 116.856 153.2 116.691 153.2C57.5283 110.063 24.4957 69.8832 35.0958 47.9447C41.2586 35.6197 60.7331 30.6897 89.3285 32.4152L88.5892 41.5357C63.9379 40.0567 47.4215 43.7542 43.2308 52.1352Z" fill="#CC4A38"/>
<path d="M306.753 112.035C453.181 183.52 527.381 259.935 516.042 283.106C512.098 291.24 495.581 294.938 470.684 293.459C450.223 292.226 425.572 287.543 398.455 279.901C404.043 273.985 409.22 267.741 413.986 261.167C413.986 261.167 414.068 261.167 414.232 261.167C460.33 273.246 480.791 270.288 483.009 265.604C484.488 262.646 479.805 246.87 439.13 215.318C403.879 187.957 353.837 157.637 297.878 130.276C242.166 102.914 187.441 81.7153 144.055 70.8693C125.073 65.9393 111.022 63.7208 100.915 63.2278C84.6452 61.9953 78.4824 64.9533 77.4963 66.9253C75.2777 71.6088 85.6312 89.3568 123.348 118.69C121.047 126.414 119.239 134.466 117.924 142.847C62.2123 101.189 36.3287 66.4323 43.231 52.1353C47.4217 43.7543 63.9381 40.0568 88.5894 41.5358C141.836 44.9868 223.432 71.3623 306.753 112.035Z" fill="#F16048"/>
<path d="M270.28 183.632C271.731 183.632 272.947 182.821 273.928 181.2C274.952 179.536 275.464 177.019 275.464 173.648C275.464 171.003 275.016 168.933 274.12 167.44C273.224 165.947 271.966 165.2 270.344 165.2C269.534 165.2 268.723 165.328 267.912 165.584C267.144 165.84 266.334 166.267 265.48 166.864C265.395 167.547 265.331 168.272 265.288 169.04C265.246 169.765 265.224 170.512 265.224 171.28C265.224 175.461 265.672 178.576 266.568 180.624C267.464 182.629 268.702 183.632 270.28 183.632ZM285.704 172.688C285.704 175.845 284.958 178.491 283.464 180.624C281.971 182.715 280.051 184.293 277.704 185.36C275.4 186.427 272.99 186.96 270.472 186.96C267.358 186.96 264.627 186.299 262.28 184.976C259.934 183.611 258.099 181.648 256.776 179.088C255.454 176.485 254.792 173.349 254.792 169.68C254.792 166.395 255.454 163.323 256.776 160.464C258.142 157.605 260.04 155.067 262.472 152.848C264.947 150.587 267.87 148.752 271.24 147.344C274.654 145.936 278.408 145.04 282.504 144.656L282.888 147.856C278.067 149.093 274.291 151.013 271.56 153.616C268.83 156.176 266.974 159.504 265.992 163.6C267.23 162.619 268.531 161.915 269.896 161.488C271.304 161.061 272.819 160.848 274.44 160.848C276.958 160.848 279.048 161.381 280.712 162.448C282.376 163.472 283.614 164.88 284.424 166.672C285.278 168.464 285.704 170.469 285.704 172.688Z" fill="black"/>
<path d="M353.016 15.7874C282 -12.0004 236.5 2.00009 191.5 26.9991C120 6.5 45.9997 -11.5 7.99997 24C-16.9999 61 25 116 116.501 181C124.501 249.5 163.501 294.5 217.5 319C270.001 338.5 323 336 371.5 305C487 340.5 546.5 333.999 560.512 293.492C567.972 235.215 456.824 160.123 448.587 154.558L448.5 154.499C441 149.431 448.5 68.4991 353.016 15.7874Z" fill="black" fill-opacity="0.6"/>
</svg>
