<svg width="665" height="286" viewBox="0 0 665 286" fill="none" xmlns="http://www.w3.org/2000/svg">
<path d="M386.208 17.7012C386.208 17.7012 380.442 0 332.3 0C284.158 0 278.392 17.7012 278.392 17.7012V63.9657H386.208V17.7012Z" fill="#315263"/>
<g style="mix-blend-mode:multiply" opacity="0.2">
<path d="M310.442 1.4751C282.281 5.7663 278.392 17.7012 278.392 17.7012V63.9657H330.288C317.147 43.7166 312.319 17.2989 310.442 1.4751Z" fill="#172E3A"/>
</g>
<path d="M440.116 86.4945C440.116 86.4945 428.449 50.958 332.3 50.958C236.15 50.958 224.483 86.4945 224.483 86.4945V179.158H440.116V86.4945Z" fill="#233D4D"/>
<path d="M332.3 77.778C236.15 77.778 224.483 113.315 224.483 113.315V179.158H440.116V113.315C440.116 113.315 428.449 77.778 332.3 77.778Z" fill="#16303D"/>
<g style="mix-blend-mode:multiply" opacity="0.2">
<path d="M285.365 146.169C287.644 146.169 325.058 125.786 325.058 125.786C292.874 119.617 289.522 66.9159 289.254 53.9082C232.395 62.3565 224.483 86.4945 224.483 86.4945V139.598C246.744 142.012 283.756 146.169 285.365 146.169Z" fill="#172E3A"/>
</g>
<path d="M332.3 115.058C140 115.058 116.533 186.131 116.533 186.131H332.3H548.067C548.067 186.131 524.599 115.058 332.3 115.058Z" fill="#315263"/>
<g style="mix-blend-mode:multiply" opacity="0.2">
<path d="M371.055 116.131C358.986 115.46 346.112 115.058 332.3 115.058C140 115.058 116.533 186.131 116.533 186.131H194.177C194.177 186.131 214.292 124.847 371.055 116.131Z" fill="#172E3A"/>
</g>
<path d="M332.3 156.763C35.9388 156.763 0 266.188 0 266.188H332.3H664.6C664.6 266.188 628.661 156.763 332.3 156.763Z" fill="#233D4D"/>
<g style="mix-blend-mode:multiply" opacity="0.2">
<path d="M332.3 266.189H664.6C664.6 266.189 658.699 248.219 632.147 227.031C578.641 220.46 464.522 216.035 332.3 216.035C200.077 216.035 85.9581 220.46 32.4522 227.031C5.9004 248.219 0 266.189 0 266.189H332.3Z" fill="#172E3A"/>
</g>
<g style="mix-blend-mode:multiply" opacity="0.2">
<path d="M0 266.188H326.936C330.288 263.641 332.3 262.3 332.3 262.3C205.575 267.261 199.943 165.748 199.943 165.479C24.5403 191.495 0 266.188 0 266.188Z" fill="#172E3A"/>
</g>
<path d="M664.6 266.189C664.6 276.782 515.883 285.365 332.3 285.365C148.717 285.365 0 276.782 0 266.189C0 255.461 148.717 246.878 332.3 246.878C515.883 246.878 664.6 255.461 664.6 266.189Z" fill="#233D4D"/>
<g style="mix-blend-mode:multiply" opacity="0.5">
<path fill-rule="evenodd" clip-rule="evenodd" d="M664.6 266.189C664.6 276.782 515.883 285.365 332.3 285.365C148.717 285.365 0 276.782 0 266.189C0 255.461 148.717 246.878 332.3 246.878C515.883 246.878 664.6 255.461 664.6 266.189ZM105.939 256.802C45.7281 260.02 20.9196 263.775 10.728 266.189C20.9196 268.468 45.7281 272.223 105.939 275.441C167.491 278.794 247.951 280.671 332.3 280.671C416.649 280.671 497.109 278.794 558.661 275.441C618.871 272.223 643.68 268.468 653.872 266.189C643.68 263.775 618.871 260.02 558.661 256.802C497.109 253.449 416.649 251.572 332.3 251.572C247.951 251.572 167.491 253.449 105.939 256.802Z" fill="#172E3A"/>
</g>
<path d="M283.219 88.7742C283.219 93.7359 279.196 97.893 274.235 97.893C269.273 97.893 265.116 93.7359 265.116 88.7742C265.116 83.8125 269.273 79.7895 274.235 79.7895C279.196 79.7895 283.219 83.8125 283.219 88.7742Z" fill="#FEDD55"/>
<path d="M321.974 84.0807C321.974 89.0424 317.951 93.0654 312.989 93.0654C307.894 93.0654 303.871 89.0424 303.871 84.0807C303.871 78.9849 307.894 74.9619 312.989 74.9619C317.951 74.9619 321.974 78.9849 321.974 84.0807Z" fill="#FEDD55"/>
<path d="M360.729 84.0807C360.729 89.0424 356.706 93.0654 351.61 93.0654C346.649 93.0654 342.625 89.0424 342.625 84.0807C342.625 78.9849 346.649 74.9619 351.61 74.9619C356.706 74.9619 360.729 78.9849 360.729 84.0807Z" fill="#FEDD55"/>
<path d="M399.484 88.7742C399.484 93.7359 395.327 97.893 390.365 97.893C385.403 97.893 381.38 93.7359 381.38 88.7742C381.38 83.8125 385.403 79.7895 390.365 79.7895C395.327 79.7895 399.484 83.8125 399.484 88.7742Z" fill="#FEDD55"/>
<g opacity="0.2">
<path d="M274.235 73.755C265.92 73.755 259.215 80.46 259.215 88.7742C259.215 97.0884 265.92 103.793 274.235 103.793C282.549 103.793 289.254 97.0884 289.254 88.7742C289.254 80.46 282.549 73.755 274.235 73.755Z" fill="#FEDD55"/>
<path d="M312.989 69.0615C304.675 69.0615 297.97 75.7665 297.97 84.0807C297.97 92.2608 304.675 99.0999 312.989 99.0999C321.17 99.0999 327.875 92.2608 327.875 84.0807C327.875 75.7665 321.17 69.0615 312.989 69.0615Z" fill="#FEDD55"/>
<path d="M351.61 69.0615C343.43 69.0615 336.591 75.7665 336.591 84.0807C336.591 92.2608 343.43 99.0999 351.61 99.0999C359.924 99.0999 366.629 92.2608 366.629 84.0807C366.629 75.7665 359.924 69.0615 351.61 69.0615Z" fill="#FEDD55"/>
<path d="M390.365 73.755C382.051 73.755 375.346 80.46 375.346 88.7742C375.346 97.0884 382.051 103.793 390.365 103.793C398.679 103.793 405.384 97.0884 405.384 88.7742C405.384 80.46 398.679 73.755 390.365 73.755Z" fill="#FEDD55"/>
</g>
<path d="M90.5176 220.326C90.5176 225.288 86.4945 229.311 81.3987 229.311C76.437 229.311 72.4141 225.288 72.4141 220.326C72.4141 215.23 76.437 211.207 81.3987 211.207C86.4945 211.207 90.5176 215.23 90.5176 220.326Z" fill="#FEDD55"/>
<path d="M145.23 216.169C145.23 221.265 141.207 225.288 136.112 225.288C131.15 225.288 127.127 221.265 127.127 216.169C127.127 211.207 131.15 207.184 136.112 207.184C141.207 207.184 145.23 211.207 145.23 216.169Z" fill="#FEDD55"/>
<path d="M199.943 216.169C199.943 221.265 195.92 225.288 190.958 225.288C185.863 225.288 181.84 221.265 181.84 216.169C181.84 211.207 185.863 207.184 190.958 207.184C195.92 207.184 199.943 211.207 199.943 216.169Z" fill="#FEDD55"/>
<path d="M254.656 213.219C254.656 218.181 250.633 222.204 245.671 222.204C240.575 222.204 236.552 218.181 236.552 213.219C236.552 208.123 240.575 204.1 245.671 204.1C250.633 204.1 254.656 208.123 254.656 213.219Z" fill="#FEDD55"/>
<path d="M309.369 213.219C309.369 218.181 305.346 222.204 300.384 222.204C295.288 222.204 291.265 218.181 291.265 213.219C291.265 208.123 295.288 204.1 300.384 204.1C305.346 204.1 309.369 208.123 309.369 213.219Z" fill="#FEDD55"/>
<path d="M574.082 220.326C574.082 225.288 578.105 229.311 583.201 229.311C588.163 229.311 592.186 225.288 592.186 220.326C592.186 215.23 588.163 211.207 583.201 211.207C578.105 211.207 574.082 215.23 574.082 220.326Z" fill="#FEDD55"/>
<path d="M519.369 216.169C519.369 221.265 523.392 225.288 528.488 225.288C533.45 225.288 537.473 221.265 537.473 216.169C537.473 211.207 533.45 207.184 528.488 207.184C523.392 207.184 519.369 211.207 519.369 216.169Z" fill="#FEDD55"/>
<path d="M464.656 216.169C464.656 221.265 468.68 225.288 473.641 225.288C478.737 225.288 482.76 221.265 482.76 216.169C482.76 211.207 478.737 207.184 473.641 207.184C468.68 207.184 464.656 211.207 464.656 216.169Z" fill="#FEDD55"/>
<path d="M409.944 213.219C409.944 218.181 413.967 222.204 418.928 222.204C424.024 222.204 428.047 218.181 428.047 213.219C428.047 208.123 424.024 204.1 418.928 204.1C413.967 204.1 409.944 208.123 409.944 213.219Z" fill="#FEDD55"/>
<path d="M355.231 213.219C355.231 218.181 359.254 222.204 364.216 222.204C369.311 222.204 373.334 218.181 373.334 213.219C373.334 208.123 369.311 204.1 364.216 204.1C359.254 204.1 355.231 208.123 355.231 213.219Z" fill="#FEDD55"/>
<g opacity="0.2">
<path d="M81.3987 205.307C73.2186 205.307 66.3795 212.012 66.3795 220.326C66.3795 228.506 73.2186 235.345 81.3987 235.345C89.7129 235.345 96.4179 228.506 96.4179 220.326C96.4179 212.012 89.7129 205.307 81.3987 205.307Z" fill="#FEDD55"/>
<path d="M136.112 201.15C127.931 201.15 121.226 207.989 121.226 216.169C121.226 224.483 127.931 231.188 136.112 231.188C144.426 231.188 151.131 224.483 151.131 216.169C151.131 207.989 144.426 201.15 136.112 201.15Z" fill="#FEDD55"/>
<path d="M190.958 201.15C182.644 201.15 175.939 207.989 175.939 216.169C175.939 224.483 182.644 231.188 190.958 231.188C199.139 231.188 205.844 224.483 205.844 216.169C205.844 207.989 199.139 201.15 190.958 201.15Z" fill="#FEDD55"/>
<path d="M245.671 198.2C237.357 198.2 230.652 204.905 230.652 213.219C230.652 221.399 237.357 228.238 245.671 228.238C253.851 228.238 260.69 221.399 260.69 213.219C260.69 204.905 253.851 198.2 245.671 198.2Z" fill="#FEDD55"/>
<path d="M300.384 198.2C292.07 198.2 285.365 204.905 285.365 213.219C285.365 221.399 292.07 228.238 300.384 228.238C308.564 228.238 315.403 221.399 315.403 213.219C315.403 204.905 308.564 198.2 300.384 198.2Z" fill="#FEDD55"/>
<path d="M583.201 205.307C574.887 205.307 568.182 212.012 568.182 220.326C568.182 228.506 574.887 235.345 583.201 235.345C591.381 235.345 598.22 228.506 598.22 220.326C598.22 212.012 591.381 205.307 583.201 205.307Z" fill="#FEDD55"/>
<path d="M528.488 201.15C520.174 201.15 513.469 207.989 513.469 216.169C513.469 224.483 520.174 231.188 528.488 231.188C536.668 231.188 543.373 224.483 543.373 216.169C543.373 207.989 536.668 201.15 528.488 201.15Z" fill="#FEDD55"/>
<path d="M473.641 201.15C465.461 201.15 458.756 207.989 458.756 216.169C458.756 224.483 465.461 231.188 473.641 231.188C481.955 231.188 488.66 224.483 488.66 216.169C488.66 207.989 481.955 201.15 473.641 201.15Z" fill="#FEDD55"/>
<path d="M418.928 198.2C410.748 198.2 403.909 204.905 403.909 213.219C403.909 221.399 410.748 228.238 418.928 228.238C427.243 228.238 433.948 221.399 433.948 213.219C433.948 204.905 427.243 198.2 418.928 198.2Z" fill="#FEDD55"/>
<path d="M364.216 198.2C356.035 198.2 349.196 204.905 349.196 213.219C349.196 221.399 356.035 228.238 364.216 228.238C372.53 228.238 379.235 221.399 379.235 213.219C379.235 204.905 372.53 198.2 364.216 198.2Z" fill="#FEDD55"/>
</g>
<path opacity="0.2" d="M596.343 204.1C548.737 179.694 468.948 157.299 336.859 156.763C343.162 157.433 527.684 176.207 596.343 204.1Z" fill="white"/>
<path opacity="0.2" d="M386.342 117.203C390.231 117.874 512.932 141.341 542.032 175.805C529.159 158.774 491.074 125.786 386.342 117.203Z" fill="white"/>
<path d="M498.047 266.189C498.047 269.809 423.89 272.759 332.3 272.759C240.71 272.759 166.552 269.809 166.552 266.189C166.552 262.434 240.71 259.484 332.3 259.484C423.89 259.484 498.047 262.434 498.047 266.189Z" fill="#FEDD55"/>
</svg>
