<svg width="219" height="219" viewBox="0 0 219 219" fill="none" xmlns="http://www.w3.org/2000/svg">
<path d="M52.0845 17.3533C1.30288 48.1658 -15.2135 113.981 15.354 165.007C45.9216 215.786 111.987 232.055 162.769 201.489C213.55 170.923 230.067 105.107 199.499 54.0818C168.931 3.30282 102.866 -13.2127 52.0845 17.3533Z" fill="#5D71FF"/>
<path d="M52.9997 15.5933C79.6231 -0.429207 110.437 -3.63374 138.293 4.00776C140.922 7.45876 143.388 11.074 145.688 14.8537C176.995 66.6187 160.233 133.667 108.465 164.726C81.8417 180.748 51.0277 184.199 23.1718 176.558C20.5423 173.107 18.0772 169.409 15.7764 165.465C-15.5307 113.947 1.2321 46.6523 52.9997 15.5933Z" fill="#8BCBBC"/>
<path d="M96.6325 217.723C96.6325 217.723 10.5994 141.555 26.1297 38.5178C39.9344 21.0163 60.395 11.4028 60.395 11.4028C36.4833 121.835 142.73 213.286 142.73 213.286C142.73 213.286 117.34 222.16 96.6325 217.723Z" fill="#7BB8AA"/>
<path d="M176.256 195.538C176.256 195.538 85.2927 121.588 96.6323 0.803372C115.614 -2.15463 138.293 4.00784 138.293 4.00784C130.651 100.389 203.865 163.986 203.865 163.986C203.865 163.986 194.251 182.227 176.256 195.538Z" fill="#7BB8AA"/>
<path d="M108.465 164.726C160.232 133.667 176.995 66.6187 145.688 14.8537C143.387 11.0741 140.922 7.45881 138.293 4.00781C164.423 11.1563 187.842 27.9182 202.879 53.0612C233.94 104.58 217.423 171.874 165.656 202.933C117.832 231.774 56.6971 219.449 23.1714 176.558C51.0273 184.199 81.8413 180.748 108.465 164.726Z" fill="#6CA799"/>
<path d="M92.976 137.36L111.6 105.552H89.392V97.68H118.064V102.544L103.024 138H93.616L92.976 137.36Z" fill="black"/>
<ellipse cx="109" cy="109.443" rx="109" ry="109.443" fill="black" fill-opacity="0.6"/>
</svg>
