<svg width="207" height="206" viewBox="0 0 207 206" fill="none" xmlns="http://www.w3.org/2000/svg">
<path d="M77.5605 5.73887C23.2947 21.0674 -8.28367 77.1699 6.73906 131.433C22.0684 185.696 78.1737 217.273 132.439 202.251C186.705 186.922 218.284 130.82 203.261 76.5568C187.932 22.2937 131.826 -9.2831 77.5605 5.73887Z" fill="#5D71FF"/>
<path d="M90.4371 153.813C144.703 138.484 176.281 82.3816 161.259 28.1185C160.032 24.0309 158.704 20.1477 157.273 16.4689C178.734 29.3448 195.903 50.4983 203.261 76.5568C218.284 130.82 186.705 186.922 132.439 202.251C82.1593 216.046 30.3461 189.988 10.7246 143.083C34.0252 156.878 62.5377 161.477 90.4371 153.813Z" fill="#D87633"/>
<path d="M77.5605 5.73877C105.46 -1.9255 133.972 2.67306 157.273 16.4687C158.704 20.1476 160.032 24.0308 161.259 28.1184C176.281 82.3814 144.703 138.484 90.4371 153.812C62.5378 161.477 34.0252 156.878 10.7246 143.082C9.29391 139.199 7.96541 135.316 6.73906 131.433C-8.28367 77.1698 23.2947 21.0673 77.5605 5.73877Z" fill="#F48A3B"/>
<path d="M53.34 82.6881C51.8071 83.3012 50.5808 85.1406 51.194 86.9801C51.5006 88.5129 53.34 89.7392 55.1796 89.1261C57.0191 88.8195 57.9389 86.9801 57.6323 85.1406C57.0191 83.3012 55.1795 82.3815 53.34 82.6881Z" fill="#D87633"/>
<path d="M30.9595 112.119C26.3607 113.345 23.908 118.25 25.1344 122.849C26.3607 127.448 31.2661 130.207 35.8649 128.98C40.4637 127.754 43.223 122.849 41.69 118.25C40.4637 113.652 35.8649 110.893 30.9595 112.119Z" fill="#D87633"/>
<path d="M99.9415 44.6734C91.3571 47.126 86.1451 56.0165 88.5978 64.6005C91.0504 73.1845 99.9415 78.3961 108.526 75.9436C117.11 73.491 122.016 64.6005 119.87 56.0165C117.417 47.4325 108.526 42.2209 99.9415 44.6734Z" fill="#D87633"/>
<path d="M104.233 114.878C102.7 115.491 101.474 117.331 102.087 118.864C102.394 120.703 104.233 121.623 106.073 121.316C107.912 120.703 108.832 118.864 108.219 117.331C107.912 115.491 106.073 114.265 104.233 114.878Z" fill="#D87633"/>
<path d="M126.308 31.4908C124.775 31.7974 123.549 33.6369 124.162 35.4763C124.775 37.3157 126.614 38.2354 128.147 37.9288C129.987 37.3157 130.907 35.4763 130.6 33.6369C129.987 32.104 128.147 30.8777 126.308 31.4908Z" fill="#D87633"/>
<path d="M59.1652 27.8119C57.0191 29.3448 56.0993 32.1039 57.3256 33.9433C58.2454 35.7828 61.3113 36.0893 63.4574 34.5564C65.9101 33.0236 66.8298 30.2644 65.6034 28.425C64.3771 26.5856 61.6179 26.2791 59.1652 27.8119Z" fill="#D87633"/>
<path d="M143.476 147.068C141.33 147.681 139.797 150.134 140.41 152.586C141.023 155.039 143.783 156.265 145.929 155.652C148.381 155.039 149.914 152.586 149.301 150.134C148.381 147.681 145.929 146.455 143.476 147.068Z" fill="#F48A3B"/>
<path d="M128.147 184.776C126.614 185.083 125.695 186.616 126.001 188.149C126.614 189.988 128.147 190.908 129.68 190.295C131.52 189.988 132.439 188.149 131.826 186.616C131.52 185.083 129.68 184.163 128.147 184.776Z" fill="#F48A3B"/>
<path d="M179.96 113.652C177.201 117.944 177.508 123.155 180.88 125.608C184.559 128.061 189.771 126.834 192.53 122.542C195.596 118.25 195.29 113.039 191.611 110.586C188.238 108.133 183.026 109.36 179.96 113.652Z" fill="#F48A3B"/>
<path d="M68.6694 173.74C60.6982 171.9 53.6467 174.659 52.4204 179.565C51.5006 184.47 57.0192 189.681 64.9904 191.521C72.6551 193.054 80.0131 190.601 80.9329 185.696C82.1592 180.484 76.6406 175.272 68.6694 173.74Z" fill="#F48A3B"/>
<path d="M84.328 135V129.304C85.8213 127.853 87.272 126.424 88.68 125.016C90.1307 123.608 91.496 122.243 92.776 120.92C94.824 118.872 96.5093 116.995 97.832 115.288C99.1973 113.581 100.221 111.896 100.904 110.232C101.587 108.525 101.928 106.712 101.928 104.792C101.928 102.317 101.331 100.397 100.136 99.032C98.984 97.6667 97.4053 96.984 95.4 96.984C95.144 96.984 94.8667 96.984 94.568 96.984C94.312 96.984 94.056 97.0053 93.8 97.048L92.968 101.592C92.6693 103.811 92.0507 105.283 91.112 106.008C90.1733 106.691 89.2133 107.032 88.232 107.032C87.336 107.032 86.504 106.797 85.736 106.328C85.0107 105.859 84.456 105.219 84.072 104.408C84.1573 102.061 84.8827 100.099 86.248 98.52C87.6133 96.8987 89.4053 95.6827 91.624 94.872C93.8427 94.0613 96.2747 93.656 98.92 93.656C102.035 93.656 104.552 94.1467 106.472 95.128C108.435 96.1093 109.885 97.432 110.824 99.096C111.763 100.76 112.232 102.637 112.232 104.728C112.232 106.776 111.699 108.76 110.632 110.68C109.565 112.6 107.901 114.563 105.64 116.568C103.379 118.573 100.477 120.792 96.936 123.224C96.0827 123.821 95.1867 124.44 94.248 125.08C93.3093 125.72 92.3493 126.403 91.368 127.128H113.064V135H84.328Z" fill="black"/>
<path d="M77.5605 5.73887C23.2947 21.0674 -8.28367 77.1699 6.73906 131.433C22.0684 185.696 78.1737 217.273 132.439 202.251C186.705 186.922 218.284 130.82 203.261 76.5568C187.932 22.2937 131.826 -9.2831 77.5605 5.73887Z" fill="black" fill-opacity="0.6"/>
</svg>
