<svg width="204" height="204" viewBox="0 0 204 204" fill="none" xmlns="http://www.w3.org/2000/svg">
<path d="M74.5605 3.73887C20.2947 19.0674 -11.2837 75.1699 3.73906 129.433C19.0684 183.696 75.1737 215.273 129.439 200.251C183.705 184.922 215.284 128.82 200.261 74.5568C184.932 20.2937 128.826 -11.2831 74.5605 3.73887Z" fill="#5D71FF"/>
<path d="M87.4371 151.813C141.703 136.484 173.281 80.3816 158.259 26.1185C157.032 22.0309 155.704 18.1477 154.273 14.4689C175.734 27.3448 192.903 48.4983 200.261 74.5568C215.284 128.82 183.705 184.922 129.439 200.251C79.1593 214.046 27.3461 187.988 7.72461 141.083C31.0252 154.878 59.5377 159.477 87.4371 151.813Z" fill="#D87633"/>
<path d="M74.5605 3.73877C102.46 -3.9255 130.972 0.673062 154.273 14.4687C155.704 18.1476 157.032 22.0308 158.259 26.1184C173.281 80.3814 141.703 136.484 87.4371 151.812C59.5378 159.477 31.0252 154.878 7.72465 141.082C6.29391 137.199 4.96541 133.316 3.73906 129.433C-11.2837 75.1698 20.2947 19.0673 74.5605 3.73877Z" fill="#F48A3B"/>
<path d="M50.34 80.6881C48.8071 81.3012 47.5808 83.1406 48.194 84.9801C48.5006 86.5129 50.34 87.7392 52.1796 87.1261C54.0191 86.8195 54.9389 84.9801 54.6323 83.1406C54.0191 81.3012 52.1795 80.3815 50.34 80.6881Z" fill="#D87633"/>
<path d="M27.9595 110.119C23.3607 111.345 20.908 116.25 22.1344 120.849C23.3607 125.448 28.2661 128.207 32.8649 126.98C37.4637 125.754 40.223 120.849 38.69 116.25C37.4637 111.652 32.8649 108.893 27.9595 110.119Z" fill="#D87633"/>
<path d="M96.9415 42.6734C88.3571 45.126 83.1451 54.0165 85.5978 62.6005C88.0504 71.1845 96.9415 76.3961 105.526 73.9436C114.11 71.491 119.016 62.6005 116.87 54.0165C114.417 45.4325 105.526 40.2209 96.9415 42.6734Z" fill="#D87633"/>
<path d="M101.233 112.878C99.7002 113.491 98.4739 115.331 99.087 116.864C99.3936 118.703 101.233 119.623 103.073 119.316C104.912 118.703 105.832 116.864 105.219 115.331C104.912 113.491 103.073 112.265 101.233 112.878Z" fill="#D87633"/>
<path d="M123.308 29.4908C121.775 29.7974 120.549 31.6369 121.162 33.4763C121.775 35.3157 123.614 36.2354 125.147 35.9288C126.987 35.3157 127.907 33.4763 127.6 31.6369C126.987 30.104 125.147 28.8777 123.308 29.4908Z" fill="#D87633"/>
<path d="M56.1652 25.8119C54.0191 27.3448 53.0993 30.1039 54.3256 31.9433C55.2454 33.7828 58.3113 34.0893 60.4574 32.5564C62.9101 31.0236 63.8298 28.2644 62.6034 26.425C61.3771 24.5856 58.6179 24.2791 56.1652 25.8119Z" fill="#D87633"/>
<path d="M140.476 145.068C138.33 145.681 136.797 148.134 137.41 150.586C138.023 153.039 140.783 154.265 142.929 153.652C145.381 153.039 146.914 150.586 146.301 148.134C145.381 145.681 142.929 144.455 140.476 145.068Z" fill="#F48A3B"/>
<path d="M125.147 182.776C123.614 183.083 122.695 184.616 123.001 186.149C123.614 187.988 125.147 188.908 126.68 188.295C128.52 187.988 129.439 186.149 128.826 184.616C128.52 183.083 126.68 182.163 125.147 182.776Z" fill="#F48A3B"/>
<path d="M176.96 111.652C174.201 115.944 174.508 121.155 177.88 123.608C181.559 126.061 186.771 124.834 189.53 120.542C192.596 116.25 192.29 111.039 188.611 108.586C185.238 106.133 180.026 107.36 176.96 111.652Z" fill="#F48A3B"/>
<path d="M65.6694 171.74C57.6982 169.9 50.6467 172.659 49.4204 177.565C48.5006 182.47 54.0192 187.681 61.9904 189.521C69.6551 191.054 77.0131 188.601 77.9329 183.696C79.1592 178.484 73.6406 173.272 65.6694 171.74Z" fill="#F48A3B"/>
<path d="M81.328 133V127.304C82.8213 125.853 84.272 124.424 85.68 123.016C87.1307 121.608 88.496 120.243 89.776 118.92C91.824 116.872 93.5093 114.995 94.832 113.288C96.1973 111.581 97.2213 109.896 97.904 108.232C98.5867 106.525 98.928 104.712 98.928 102.792C98.928 100.317 98.3307 98.3973 97.136 97.032C95.984 95.6667 94.4053 94.984 92.4 94.984C92.144 94.984 91.8667 94.984 91.568 94.984C91.312 94.984 91.056 95.0053 90.8 95.048L89.968 99.592C89.6693 101.811 89.0507 103.283 88.112 104.008C87.1733 104.691 86.2133 105.032 85.232 105.032C84.336 105.032 83.504 104.797 82.736 104.328C82.0107 103.859 81.456 103.219 81.072 102.408C81.1573 100.061 81.8827 98.0987 83.248 96.52C84.6133 94.8987 86.4053 93.6827 88.624 92.872C90.8427 92.0613 93.2747 91.656 95.92 91.656C99.0347 91.656 101.552 92.1467 103.472 93.128C105.435 94.1093 106.885 95.432 107.824 97.096C108.763 98.76 109.232 100.637 109.232 102.728C109.232 104.776 108.699 106.76 107.632 108.68C106.565 110.6 104.901 112.563 102.64 114.568C100.379 116.573 97.4773 118.792 93.936 121.224C93.0827 121.821 92.1867 122.44 91.248 123.08C90.3093 123.72 89.3493 124.403 88.368 125.128H110.064V133H81.328Z" fill="black"/>
<circle cx="102" cy="102" r="102" fill="black" fill-opacity="0.6"/>
</svg>
