<svg width="1920" height="1080" viewBox="0 0 1920 1080" fill="none" xmlns="http://www.w3.org/2000/svg">
<path d="M1919.97 1080H0V0H1919.97V1080Z" fill="#1C1A30"/>
<path opacity="0.1" d="M1920 293C1902.91 294.525 1885.63 300.017 1872.96 306.882C1843.01 323.052 1837.06 339.07 1834.94 366.834C1814.21 365.156 1793.86 359.054 1772.35 365.156C1752.77 370.8 1746.82 383.614 1736.26 395.971C1729.92 384.682 1722.43 369.58 1703.81 363.935C1677.12 355.85 1666.56 377.207 1644.86 380.411C1627.2 314.509 1524.29 350.663 1499.33 395.665C1465.34 379.038 1447.49 392.462 1433.47 419.616C1408.32 380.563 1346.69 414.581 1330.37 439.294C1314.82 425.26 1292.54 420.989 1270.85 432.125C1249.34 443.261 1258.18 459.278 1249.92 474.381C1243.97 485.212 1227.26 488.11 1213.82 495.585C1189.63 508.704 1153.73 534.18 1165.82 560.723C1141.06 560.876 1117.63 554.316 1093.06 562.401C1076.54 567.741 1044.48 579.334 1045.44 595.81C1022.78 584.674 941.376 578.877 942.912 612.743C917.184 589.86 824.832 578.724 805.248 616.861C776.064 599.013 760.512 591.691 723.84 600.234C727.68 569.266 676.608 577.199 653.184 575.826C654.528 555.232 637.248 537.841 618.624 524.722C595.008 507.636 556.224 509.314 527.424 516.789C512.448 497.11 479.04 491.924 451.2 494.212C441.792 495.127 432 497.416 423.552 500.772C419.904 502.145 405.504 512.213 403.008 512.365C394.176 512.365 382.272 499.704 371.136 497.721C355.968 494.822 334.272 496.653 319.68 500.314C311.616 502.45 303.744 508.552 296.448 510.23C283.776 512.976 292.416 511.908 281.472 509.009C264.768 504.585 256.896 498.026 237.312 497.263C221.568 496.805 205.632 497.873 189.888 497.11C179.52 463.092 149.184 438.379 102.144 439.599C99.84 404.208 76.032 400.242 35.328 398.564C33.984 380.411 19.2 366.681 0 360.884V1080H1920V293Z" fill="url(#paint0_linear_32_4764)"/>
<defs>
<linearGradient id="paint0_linear_32_4764" x1="704.544" y1="1079.94" x2="704.544" y2="293.015" gradientUnits="userSpaceOnUse">
<stop stop-color="white" stop-opacity="0"/>
<stop offset="1" stop-color="white"/>
</linearGradient>
</defs>
</svg>
