<svg width="384" height="384" viewBox="0 0 384 384" fill="none" xmlns="http://www.w3.org/2000/svg">
<path d="M24.6865 97.5989C26.8229 93.8192 29.0415 90.2039 31.3423 86.7529C35.9439 79.5222 41.0385 72.7024 46.6261 66.2934C64.1285 45.8339 85.5751 29.8114 109.487 18.4724C119.019 13.871 128.961 10.1735 139.315 7.37988C151.887 3.68238 165.199 1.21741 178.264 0.47791C210.064 -1.74059 243.097 3.68238 273.911 18.4724C304.725 33.0159 329.869 54.9544 348.357 80.8369C355.999 91.6829 362.409 103.515 367.585 115.593C371.858 125.289 375.309 135.396 377.939 145.913C384.348 171.302 385.334 198.171 380.65 224.546C379.171 232.927 377.199 241.226 374.734 249.443C373.42 253.387 371.94 257.331 370.297 261.275C368.654 265.548 366.928 269.738 365.12 273.846C364.627 274.832 364.134 275.818 363.641 276.804C355.999 292.087 346.632 305.891 335.785 318.216C329.376 325.611 322.391 332.431 314.832 338.676C308.422 344.099 301.684 349.111 294.618 353.712C288.044 357.821 281.224 361.518 274.157 364.805C258.627 372.2 242.357 377.376 225.348 380.581C187.385 387.236 146.957 382.799 109.487 365.051C72.0169 347.303 42.9284 318.956 24.1934 285.185C15.812 270.149 9.64923 254.126 5.45852 237.611C3.65076 230.052 2.25383 222.41 1.26778 214.686C0.281729 206.305 -0.129126 197.924 0.0352161 189.543C0.0352161 179.848 0.856924 170.152 2.50034 160.456C5.21198 144.187 9.89577 128.165 17.0446 112.389C17.5377 111.403 17.9485 110.499 18.2772 109.677C20.2493 105.569 22.3857 101.543 24.6865 97.5989Z" fill="#D94F33"/>
<path d="M335.785 318.216L2.50049 160.456C5.21213 144.187 9.89592 128.165 17.0448 112.389L363.641 276.804C356 292.087 346.632 305.891 335.785 318.216Z" fill="#EC9D62"/>
<path d="M294.618 353.713L1.26778 214.686C0.281729 206.305 -0.129126 197.924 0.0352161 189.543L314.832 338.676C308.422 344.099 301.684 349.111 294.618 353.713Z" fill="#F48A3B"/>
<path d="M225.348 380.581L24.1934 285.185C15.812 270.149 9.64921 254.126 5.4585 237.611L274.157 364.805C258.627 372.2 242.357 377.376 225.348 380.581Z" fill="#EC9D62"/>
<path d="M374.734 249.443C373.42 253.387 371.941 257.331 370.297 261.275L24.6865 97.5992C26.823 93.8195 29.0416 90.2042 31.3424 86.7532L374.734 249.443Z" fill="#EC9D62"/>
<path d="M109.487 18.4724L377.939 145.913C384.348 171.302 385.334 198.171 380.65 224.546L46.626 66.2934C64.1284 45.8339 85.575 29.8114 109.487 18.4724Z" fill="#F48A3B"/>
<path d="M178.264 0.478027L348.357 80.837C355.999 91.683 362.409 103.515 367.586 115.593L139.315 7.38C151.887 3.6825 165.199 1.21753 178.264 0.478027Z" fill="#EC9D62"/>
<g style="mix-blend-mode:multiply" opacity="0.4">
<path d="M163.473 285.185C265.775 257.084 326.171 151.582 298.068 49.0383C296.096 41.479 293.631 34.1662 290.673 27.0999C331.348 51.5034 363.148 91.1899 376.706 140.736C404.808 243.28 344.413 349.029 241.864 376.883C147.203 402.766 49.584 352.973 13.3467 264.233C56.7329 290.362 110.473 299.482 163.473 285.185Z" fill="#BA1F4A"/>
</g>
<path d="M203.896 206.712C203.896 209.613 203.149 212.067 201.656 214.072C200.163 216.035 198.136 217.507 195.576 218.488C193.059 219.469 190.179 219.96 186.936 219.96C182.84 219.96 179.64 219.021 177.336 217.144C175.032 215.224 173.773 212.643 173.56 209.4C173.901 208.419 174.456 207.693 175.224 207.224C175.992 206.755 176.803 206.52 177.656 206.52C178.979 206.52 180.003 206.925 180.728 207.736C181.496 208.547 182.008 209.955 182.264 211.96L182.776 216.312C183.16 216.44 183.544 216.525 183.928 216.568C184.312 216.611 184.739 216.632 185.208 216.632C187.555 216.632 189.453 215.843 190.904 214.264C192.397 212.685 193.144 210.531 193.144 207.8C193.144 204.856 192.461 202.616 191.096 201.08C189.731 199.501 187.832 198.712 185.4 198.712C184.333 198.712 183.309 198.776 182.328 198.904C181.389 199.032 180.387 199.203 179.32 199.416L177.528 198.136L178.872 178.68H202.296V186.552H182.456L181.88 194.616C183.885 194.232 185.955 194.04 188.088 194.04C192.995 194.04 196.856 195.128 199.672 197.304C202.488 199.437 203.896 202.573 203.896 206.712Z" fill="black"/>
</svg>
