<svg width="247" height="247" viewBox="0 0 247 247" fill="none" xmlns="http://www.w3.org/2000/svg">
<path d="M56.3528 22.2067C0.641016 59.4282 -14.6427 134.364 22.3341 190.073C59.311 246.029 134.497 261.065 190.209 224.09C245.921 187.115 261.205 111.933 224.228 56.2236C187.251 0.514628 112.065 -14.7683 56.3528 22.2067Z" fill="#5D71FF"/>
<path d="M55.1204 20.481C84.4554 1.25404 118.967 -4.16896 150.521 3.22604C153.808 6.84137 156.848 10.7853 159.642 15.058C197.112 71.753 181.828 148.168 125.13 185.883C95.795 205.11 61.2832 210.533 29.7296 203.138C26.4428 199.522 23.4025 195.578 20.6087 191.306C-17.1078 134.611 -1.57747 58.1955 55.1204 20.481Z" fill="#EF7767"/>
<path d="M114.53 246.029C114.53 246.029 13.7067 164.684 26.0323 47.8427C40.5766 27.3832 63.2557 15.5511 63.2557 15.5511C41.8091 141.02 166.051 238.634 166.051 238.634C166.051 238.634 137.949 249.973 114.53 246.029Z" fill="#F16048"/>
<path d="M203.028 216.942C203.028 216.942 96.7813 138.308 103.684 1.50064C124.637 -2.68986 150.521 3.22617 150.521 3.22617C147.07 112.179 232.61 179.967 232.61 179.967C232.61 179.967 222.503 201.166 203.028 216.942Z" fill="#F16048"/>
<path d="M125.13 185.883C181.828 148.168 197.111 71.7532 159.642 15.0582C156.848 10.7855 153.807 6.84153 150.521 3.2262C180.349 9.8817 207.711 27.6297 225.953 54.9912C263.423 111.686 248.139 188.101 191.442 225.816C138.934 260.572 69.418 249.973 29.7295 203.138C61.2831 210.533 95.7949 205.11 125.13 185.883Z" fill="#F16048"/>
<path d="M132.96 138.424H127.072V147H117.984V138.424H101.344V132.6L119.968 105.976H127.072V131.384H132.96V138.424ZM106.656 131.384H117.984V114.936L106.656 131.384Z" fill="black"/>
</svg>
