<svg width="205" height="204" viewBox="0 0 205 204" fill="none" xmlns="http://www.w3.org/2000/svg">
<path d="M47.3255 16.0505C-0.324504 46.1611 -14.2224 109.029 15.8897 156.677C46.3327 204.324 109.204 218.222 156.854 188.111C204.173 157.67 218.402 94.8013 187.959 47.1538C157.847 -0.162906 94.9754 -14.391 47.3255 16.0505Z" fill="#5D71FF"/>
<path d="M102.587 153.699C150.236 123.588 164.134 60.7201 134.022 13.0726C131.596 9.54312 129.169 6.23426 126.742 3.146C151.229 9.10194 173.399 24.3227 187.959 47.1538C218.402 94.8013 204.173 157.67 156.854 188.111C112.844 215.906 55.5984 205.979 23.1699 166.604C49.3112 173.221 78.0997 169.251 102.587 153.699Z" fill="#30BDC4"/>
<path d="M47.3255 16.0502C71.8122 0.498568 100.601 -3.47207 126.742 3.14565C129.169 6.23391 131.596 9.54277 134.022 13.0722C164.134 60.7198 150.236 123.588 102.586 153.699C78.0996 169.25 49.3111 173.221 23.1698 166.603C20.7432 163.515 18.3163 160.206 15.8897 156.677C-14.2224 109.029 -0.324504 46.1608 47.3255 16.0502Z" fill="#3AC3DA"/>
<path d="M73.1364 97.4483C71.8128 97.4483 70.4892 97.1174 69.8274 95.7939C69.1656 94.8012 53.6133 70.3157 56.2605 36.2345C56.5914 34.2491 58.2458 32.5947 60.2312 32.5947C62.2166 32.9256 63.871 34.5801 63.871 36.8963C61.5547 68.3304 76.1146 91.4924 76.1146 91.8233C77.4383 93.4777 76.7763 95.7939 75.1218 97.1175C74.46 97.3381 73.7983 97.4483 73.1364 97.4483Z" fill="#30BDC4"/>
<path d="M73.1358 79.2495C71.4813 79.2495 70.1578 78.2569 69.496 76.9333C69.1651 76.2715 59.2378 56.0875 60.5614 27.3004C60.8923 25.3151 62.547 23.6607 64.5324 23.9916C66.5178 23.9916 68.1723 25.646 68.1723 27.9622C66.8487 54.4331 76.1139 73.6245 76.4448 73.6245C77.4375 75.6098 76.4448 77.5951 74.7903 78.5877C74.1285 79.0289 73.577 79.2495 73.1358 79.2495Z" fill="#30BDC4"/>
<path d="M46.6635 96.7869C45.009 97.7795 44.6779 99.7648 45.6707 101.419C46.6634 102.743 48.6489 103.405 49.9725 102.412C51.6271 101.419 51.9577 99.1031 50.965 97.7795C49.9723 96.1251 47.9871 95.7942 46.6635 96.7869Z" fill="#30BDC4"/>
<path d="M104.572 112.669C102.918 113.662 102.587 115.647 103.579 117.302C104.572 118.625 106.558 119.287 108.212 118.294C109.536 117.302 110.198 115.316 109.205 113.662C108.212 112.007 106.227 111.677 104.572 112.669Z" fill="#30BDC4"/>
<path d="M101.593 26.3079C99.9387 27.3005 99.6076 29.2859 100.6 30.9403C101.593 32.2638 103.579 32.9256 104.902 31.933C106.557 30.9403 106.888 28.955 105.895 27.3005C105.233 25.6461 102.917 25.3152 101.593 26.3079Z" fill="#30BDC4"/>
<path d="M36.0749 42.5214C34.4204 44.5067 34.4204 47.4847 36.0749 48.8082C37.7294 50.1318 40.3768 49.47 42.0313 47.4847C44.0167 45.4994 44.0166 42.5214 42.3621 41.1979C40.7076 39.8743 38.0603 40.5361 36.0749 42.5214Z" fill="#30BDC4"/>
<path d="M151.56 131.86C149.243 133.184 148.912 136.162 150.236 138.147C151.56 140.133 154.207 140.794 156.523 139.471C158.509 138.147 159.171 135.5 157.847 133.184C156.523 131.199 153.545 130.537 151.56 131.86Z" fill="#30BDC4"/>
<path d="M176.708 89.5073C175.053 94.4706 177.039 99.4339 181.01 100.757C184.98 102.081 189.613 99.103 191.267 94.1397C192.922 89.5073 190.937 84.5441 186.966 82.8896C182.995 81.5661 178.362 84.5441 176.708 89.5073Z" fill="#30BDC4"/>
<path d="M88.6882 186.457C88.247 186.457 87.6955 186.346 87.0337 186.126C85.7101 185.795 54.2745 171.236 40.3766 136.824C39.7148 134.838 40.7073 132.853 42.6927 131.86C44.6781 131.199 46.6635 132.191 47.6563 134.177C60.2306 165.611 90.0119 179.177 90.3428 179.508C92.3282 180.17 92.9899 182.486 92.3281 184.471C91.6663 185.795 90.0119 186.457 88.6882 186.457Z" fill="#30BDC4"/>
<path d="M130.051 92.4849C129.059 92.4849 128.066 92.1541 127.404 91.1614C126.412 90.1688 103.579 66.6759 109.536 36.5653C109.867 34.58 111.852 33.2564 113.837 33.5873C115.823 33.9182 117.146 35.9035 116.815 37.8888C111.521 64.3597 132.368 85.8672 132.699 85.8672C134.022 87.5217 134.022 89.8379 132.699 91.1614C131.706 92.1541 130.713 92.4849 130.051 92.4849Z" fill="#30BDC4"/>
<path d="M107.88 171.898C107.439 171.898 106.888 171.788 106.226 171.567C105.895 171.236 92.3277 164.618 84.0551 151.052C82.7315 149.398 83.3935 147.081 85.048 145.758C86.7025 144.765 89.0188 145.427 90.3424 147.081C97.6222 158.662 109.535 164.618 109.535 164.949C111.52 165.611 112.182 167.927 111.189 169.913C110.528 171.236 109.204 171.898 107.88 171.898Z" fill="#30BDC4"/>
<path d="M22.8385 120.611C21.184 120.611 19.8604 119.618 19.1986 118.294C19.1986 117.633 13.2425 104.066 15.2279 91.8235C15.5589 89.5073 17.5443 88.1838 19.8607 88.5147C21.8461 88.8456 23.1694 90.8309 22.8385 93.1471C20.8531 103.074 26.1475 114.986 26.1475 115.316C27.1402 117.302 26.1476 119.287 24.1622 120.28C23.721 120.5 23.2797 120.611 22.8385 120.611Z" fill="#30BDC4"/>
<path d="M88.096 98.168C88.096 99.064 88.288 99.96 88.672 100.856C89.056 101.752 89.7813 102.669 90.848 103.608C91.9573 104.504 93.536 105.464 95.584 106.488C96.7787 105.037 97.5893 103.736 98.016 102.584C98.4427 101.389 98.656 100.109 98.656 98.744C98.656 97.1227 98.1867 95.7787 97.248 94.712C96.352 93.6027 95.0933 93.048 93.472 93.048C92.064 93.048 90.8053 93.5173 89.696 94.456C88.6293 95.352 88.096 96.5893 88.096 98.168ZM78.816 122.296C78.816 120.163 79.52 118.285 80.928 116.664C82.3787 115 84.4693 113.592 87.2 112.44C82.1227 109.624 79.584 105.891 79.584 101.24C79.584 98.8507 80.2027 96.8027 81.44 95.096C82.6773 93.3467 84.3627 92.0027 86.496 91.064C88.6293 90.1253 91.04 89.656 93.728 89.656C96.7147 89.656 99.1467 90.0827 101.024 90.936C102.901 91.7893 104.288 92.92 105.184 94.328C106.123 95.736 106.592 97.272 106.592 98.936C106.592 100.557 106.016 102.136 104.864 103.672C103.755 105.208 101.749 106.659 98.848 108.024C101.877 109.56 104.16 111.331 105.696 113.336C107.232 115.341 108 117.688 108 120.376C108 123.875 106.635 126.691 103.904 128.824C101.173 130.915 97.376 131.96 92.512 131.96C87.9467 131.96 84.512 131.085 82.208 129.336C79.9467 127.587 78.816 125.24 78.816 122.296ZM87.2 121.784C87.2 123.747 87.776 125.389 88.928 126.712C90.08 127.992 91.5307 128.632 93.28 128.632C95.1573 128.632 96.544 128.056 97.44 126.904C98.3787 125.709 98.848 124.365 98.848 122.872C98.848 121.165 98.2507 119.629 97.056 118.264C95.904 116.899 93.728 115.491 90.528 114.04C89.3333 115.277 88.48 116.493 87.968 117.688C87.456 118.883 87.2 120.248 87.2 121.784Z" fill="black"/>
</svg>
