<svg width="559" height="331" viewBox="0 0 559 331" fill="none" xmlns="http://www.w3.org/2000/svg">
<path d="M226.868 8.98371C140.588 38.5637 94.7366 132.48 124.318 218.755C153.9 305.03 247.821 350.879 334.1 321.299C420.38 291.719 466.231 197.803 436.65 111.528C406.822 25.2527 312.9 -20.5963 226.868 8.98371Z" fill="#5D71FF"/>
<path d="M261.626 246.856C347.905 217.276 393.757 123.36 364.175 37.0847C361.874 30.6757 359.327 24.5132 356.533 18.5972C392.771 37.5777 422.106 69.8692 436.65 111.528C466.231 197.803 420.38 291.719 334.101 321.299C254.231 348.661 167.951 311.439 131.96 237.243C170.663 257.456 217.254 262.139 261.626 246.856Z" fill="#A17896"/>
<path d="M226.868 8.98369C271.24 -6.29931 317.831 -1.36929 356.533 18.5972C359.327 24.5132 361.874 30.6757 364.175 37.0847C393.756 123.36 347.905 217.276 261.626 246.856C217.254 262.139 170.663 257.456 131.96 237.243C129.002 231.327 126.455 225.164 124.318 218.755C94.7366 132.48 140.588 38.5637 226.868 8.98369Z" fill="#B38BA7"/>
<path d="M76.4951 65.9254C77.4812 63.9534 83.644 60.9954 99.9138 62.2279C110.021 62.7209 124.072 64.9394 143.054 69.8694C186.44 80.7154 241.165 101.914 296.877 129.276C352.835 156.637 402.878 186.957 438.129 214.318C478.803 245.87 483.487 261.646 482.008 264.604C479.79 269.288 459.329 272.246 413.231 260.167C414.71 258.031 416.107 255.895 417.422 253.758C417.586 253.594 417.668 253.512 417.668 253.512C418.326 252.526 418.901 251.622 419.394 250.8C419.558 250.636 419.64 250.472 419.64 250.307C420.133 249.321 420.708 248.418 421.366 247.596C421.366 247.432 421.448 247.185 421.613 246.856C422.106 246.035 422.599 245.213 423.092 244.391C423.256 244.227 423.42 243.981 423.585 243.652C423.913 242.83 424.324 242.009 424.817 241.187C424.981 240.858 425.146 240.53 425.31 240.201C425.803 239.379 426.214 238.558 426.543 237.736C421.12 225.657 390.059 202.733 345.933 177.343C328.431 167.483 308.956 157.13 288.249 147.024C214.788 111.035 149.956 89.0964 131.96 93.2869C128.016 101.011 124.812 109.145 122.346 117.69C84.63 88.3569 74.2765 70.6089 76.4951 65.9254Z" fill="#CC4A38"/>
<path d="M3.52736 29.9363C15.853 5.0398 55.5417 -2.35517 118.649 8.73733C141.082 12.6813 165.486 18.8438 191.124 26.9783C232.291 39.7963 276.91 57.7908 321.282 79.4828C364.175 100.435 406.082 125.085 442.813 150.475C520.711 204.458 573.711 262.632 555.222 300.347C545.362 320.067 517.506 328.694 475.599 326.229C446.017 324.257 409.534 316.616 367.626 303.551C367.626 303.551 367.544 303.551 367.38 303.551C375.433 298.293 382.992 292.459 390.059 286.05C420.38 294.924 447.496 300.1 469.19 301.579C497.785 303.305 517.26 298.375 523.176 286.05C540.432 250.8 444.785 168.962 309.696 102.9C222.677 60.2558 140.342 34.8663 88.3277 31.4153C59.7323 29.6898 40.2578 34.6198 34.095 46.9448C23.4949 68.8833 56.5275 109.063 115.691 152.2C115.691 153.022 115.691 153.926 115.691 154.912C115.526 156.062 115.444 157.13 115.444 158.116C115.198 165.758 115.444 172.906 116.184 180.301C116.019 180.301 115.937 180.219 115.937 180.055C29.1649 119.909 -12.989 63.7068 3.52736 29.9363Z" fill="#F16048"/>
<path d="M397.208 278.901C397.208 278.901 397.29 278.901 397.454 278.901C424.817 286.543 449.222 291.226 469.683 292.459C494.581 293.938 511.097 290.24 515.041 282.106C526.38 258.935 452.18 182.52 305.752 111.035C222.431 70.3623 140.835 43.9868 87.5884 40.5358L88.3277 31.4153C140.342 34.8663 222.677 60.2558 309.696 102.9C444.785 168.962 540.432 250.8 523.176 286.05C517.26 298.375 497.785 303.305 469.19 301.579C447.496 300.1 420.38 294.924 390.059 286.05C389.895 286.05 389.813 286.05 389.813 286.05C392.442 283.749 394.907 281.366 397.208 278.901Z" fill="#CC4A38"/>
<path d="M42.2298 51.1352C35.3275 65.4322 61.2111 100.189 116.923 141.847C116.43 145.298 116.101 148.749 115.937 152.2C115.937 152.2 115.855 152.2 115.69 152.2C56.5274 109.063 23.4948 68.8832 34.0948 46.9447C40.2576 34.6197 59.7321 29.6897 88.3276 31.4152L87.5882 40.5357C62.9369 39.0567 46.4205 42.7542 42.2298 51.1352Z" fill="#CC4A38"/>
<path d="M305.752 111.035C452.18 182.52 526.38 258.935 515.041 282.106C511.097 290.24 494.581 293.938 469.683 292.459C449.222 291.226 424.571 286.543 397.454 278.901C403.042 272.985 408.219 266.741 412.985 260.167C412.985 260.167 413.067 260.167 413.231 260.167C459.329 272.246 479.79 269.288 482.008 264.604C483.487 261.646 478.804 245.87 438.129 214.318C402.878 186.957 352.836 156.637 296.877 129.276C241.165 101.914 186.44 80.7153 143.054 69.8693C124.072 64.9393 110.021 62.7208 99.914 62.2278C83.6442 60.9953 77.4814 63.9533 76.4953 65.9253C74.2767 70.6088 84.6302 88.3568 122.347 117.69C120.046 125.414 118.238 133.466 116.923 141.847C61.2113 100.189 35.3277 65.4323 42.23 51.1353C46.4208 42.7543 62.9372 39.0568 87.5884 40.5358C140.835 43.9868 222.431 70.3623 305.752 111.035Z" fill="#F16048"/>
<path d="M269.28 182.632C270.731 182.632 271.947 181.821 272.928 180.2C273.952 178.536 274.464 176.019 274.464 172.648C274.464 170.003 274.016 167.933 273.12 166.44C272.224 164.947 270.965 164.2 269.344 164.2C268.533 164.2 267.723 164.328 266.912 164.584C266.144 164.84 265.333 165.267 264.48 165.864C264.395 166.547 264.331 167.272 264.288 168.04C264.245 168.765 264.224 169.512 264.224 170.28C264.224 174.461 264.672 177.576 265.568 179.624C266.464 181.629 267.701 182.632 269.28 182.632ZM284.704 171.688C284.704 174.845 283.957 177.491 282.464 179.624C280.971 181.715 279.051 183.293 276.704 184.36C274.4 185.427 271.989 185.96 269.472 185.96C266.357 185.96 263.627 185.299 261.28 183.976C258.933 182.611 257.099 180.648 255.776 178.088C254.453 175.485 253.792 172.349 253.792 168.68C253.792 165.395 254.453 162.323 255.776 159.464C257.141 156.605 259.04 154.067 261.472 151.848C263.947 149.587 266.869 147.752 270.24 146.344C273.653 144.936 277.408 144.04 281.504 143.656L281.888 146.856C277.067 148.093 273.291 150.013 270.56 152.616C267.829 155.176 265.973 158.504 264.992 162.6C266.229 161.619 267.531 160.915 268.896 160.488C270.304 160.061 271.819 159.848 273.44 159.848C275.957 159.848 278.048 160.381 279.712 161.448C281.376 162.472 282.613 163.88 283.424 165.672C284.277 167.464 284.704 169.469 284.704 171.688Z" fill="black"/>
</svg>
